<?xml version="1.0" encoding="utf-8"?>
<svg version="1.1" id="Layer_1" xmlns="http://www.w3.org/2000/svg" xmlns:xlink="http://www.w3.org/1999/xlink" x="0px" y="0px"
	 viewBox="0 0 2480.735 1696.954" enable-background="new 0 0 2480.735 1696.954" xml:space="preserve">
<g>
	<path fill="#574F5E" stroke="#574F5E" d="M971.497,60.837c0.439-6.707,6.519-12.521,13.297-12.356
		c143.912,0.024,287.824,0.008,431.737,0.008c5.352,0.063,10.374,3.926,12.113,8.948c0.979,2.594,0.682,5.414,0.721,8.125
		c0.008,84.199,0,168.398,0.008,252.589c-152.625,0.031-305.25,0-457.883,0.016c-0.063-9.042-0.055-18.084-0.023-27.134
		C971.536,214.308,971.489,137.568,971.497,60.837 M986.768,63.744c0.031,79.78-0.047,159.559,0.039,239.339
		c22.245-0.235,44.489,0.11,66.726-0.157c35.33-0.235,70.667-0.031,105.997-0.102c84.833,0.016,169.659-0.031,254.493,0.024
		c0.078-79.678,0.047-159.348,0.016-239.026c-120.187-0.024-240.365,0.031-360.544-0.031
		C1031.249,63.673,1009.013,63.767,986.768,63.744z"/>
	<path fill="#2390B7" stroke="#2390B7" d="M986.768,63.744c22.245,0.024,44.481-0.071,66.726,0.047
		c-0.141,41.081-0.008,82.154-0.055,123.227c0.055,38.636-0.125,77.272,0.094,115.909c-22.237,0.266-44.481-0.078-66.726,0.157
		C986.721,223.303,986.799,143.523,986.768,63.744 M1005.244,80.684c-0.306,1.669-0.4,3.369-0.031,5.046
		c9.904,0.071,19.816-0.031,29.727,0.024c0.204-1.692,0.196-3.393-0.008-5.085C1025.036,80.629,1015.14,80.637,1005.244,80.684
		 M1005.103,89.099c-0.102,1.536-0.094,3.079,0.016,4.631c9.959,0.212,19.933,0.165,29.9,0c0.078-1.544,0.071-3.087-0.016-4.623
		C1025.036,88.848,1015.061,88.903,1005.103,89.099 M1005.142,97.06c-0.172,1.653-0.149,3.314,0.023,4.975
		c9.92-0.259,19.847-0.212,29.774,0c0.212-1.669,0.251-3.346,0.031-4.999C1025.028,97.075,1015.085,96.989,1005.142,97.06z"/>
	<path fill="#30A0C8" stroke="#30A0C8" d="M1053.494,63.791c120.179,0.063,240.358,0.008,360.544,0.031
		c0.031,79.678,0.063,159.348-0.016,239.026c-84.833-0.055-169.659-0.008-254.493-0.024c-35.33,0.071-70.667-0.133-105.997,0.102
		c-0.219-38.636-0.039-77.272-0.094-115.909C1053.486,145.944,1053.353,104.871,1053.494,63.791 M1119.287,117.784
		c-0.047,11.871-0.024,23.749-0.008,35.62c73.449,0.008,146.897,0.024,220.346-0.008c-0.016-11.863-0.008-23.725,0-35.588
		C1266.177,117.792,1192.736,117.839,1119.287,117.784 M1119.311,166.771c-0.141,11.824,0.071,23.655-0.11,35.479
		c27.291,0.282,54.597,0.039,81.895,0.118c46.174,0.008,92.355-0.008,138.529,0.008c-0.016-11.855-0.016-23.702,0-35.549
		C1266.185,166.802,1192.752,166.904,1119.311,166.771 M1119.295,215.844c-0.055,11.871-0.031,23.733-0.016,35.604
		c73.457,0,146.913,0.11,220.37-0.055c-0.063-11.831-0.031-23.663-0.024-35.502C1266.185,215.789,1192.736,215.883,1119.295,215.844
		z"/>
	<path fill="#30A0C8" stroke="#30A0C8" d="M1005.244,80.684c9.896-0.047,19.792-0.055,29.688-0.016
		c0.204,1.692,0.212,3.393,0.008,5.085c-9.912-0.055-19.824,0.047-29.727-0.024C1004.844,84.053,1004.938,82.353,1005.244,80.684z"
		/>
	<path fill="#30A0CA" stroke="#30A0CA" d="M1005.103,89.099c9.959-0.196,19.933-0.251,29.9,0.008
		c0.086,1.536,0.094,3.079,0.016,4.623c-9.967,0.165-19.941,0.212-29.9,0C1005.009,92.178,1005.001,90.635,1005.103,89.099z"/>
	<path fill="#30A0C8" stroke="#30A0C8" d="M1005.142,97.06c9.943-0.071,19.886,0.016,29.829-0.024
		c0.219,1.653,0.18,3.33-0.031,4.999c-9.927-0.212-19.855-0.259-29.774,0C1004.993,100.374,1004.969,98.713,1005.142,97.06z"/>
	<path fill="#9ED76C" stroke="#9ED76C" d="M1119.287,117.784c73.449,0.055,146.89,0.008,220.338,0.024
		c-0.008,11.863-0.016,23.725,0,35.588c-73.449,0.031-146.897,0.016-220.346,0.008
		C1119.264,141.533,1119.24,129.655,1119.287,117.784z"/>
	<path fill="#7FCCE0" stroke="#7FCCE0" d="M1119.311,166.771c73.441,0.133,146.874,0.031,220.315,0.055
		c-0.016,11.847-0.016,23.694,0,35.549c-46.174-0.016-92.355,0-138.529-0.008c-27.298-0.078-54.605,0.165-81.895-0.118
		C1119.381,190.426,1119.17,178.594,1119.311,166.771z"/>
	<path fill="#7FCCE0" stroke="#7FCCE0" d="M1119.295,215.844c73.441,0.039,146.89-0.055,220.33,0.047
		c-0.008,11.839-0.039,23.671,0.024,35.502c-73.457,0.165-146.913,0.055-220.37,0.055
		C1119.264,239.577,1119.24,227.714,1119.295,215.844z"/>
	<path fill="#574F5E" stroke="#574F5E" d="M680.852,278.754c11.338-3.745,20.309-12.012,28.458-20.419
		c-0.086,19.682-1.363,39.482-5.736,58.726c-3.118,12.968-7.42,26.115-15.89,36.654c-5.681,7.201-14.425,12.396-23.78,12.2
		c-67.925,0.047-135.85,0.125-203.774,0.039l-0.697-0.008c-0.102,40.227,0.172,80.461-0.133,120.688
		c-9.826,0.243-19.667,0.235-29.484,0.008c-0.376-6.966-0.078-13.947-0.11-20.92c-0.266-0.024-0.799-0.078-1.066-0.102
		c-1.426-9.23-9.465-17.089-18.907-17.543c-6.025-0.149-12.059-0.055-18.092-0.055c-7.796-0.008-15.161,5.226-17.982,12.45
		c-1.912,4.45-1.285,9.379-1.371,14.096c-0.008,11.737,0.008,23.475-0.016,35.22c-0.306,12.748,5.406,25.167,14.151,34.264
		c5.32,5.555,12.066,10.194,19.808,11.377c1.849,2.735,1.489,6.112,1.465,9.261c-0.118,12.623,0.118,25.261-0.094,37.884
		c-7.028,0.266-14.064,0.133-21.085,0.094c-7.592-9.152-15.796-17.927-21.751-28.293c-11.158-18.672-16.987-40.462-16.681-62.213
		c0.016-60.56-0.086-121.127,0.055-181.686c8.736,9.246,17.434,18.546,26.397,27.58c0.102-14.111,3.886-28.27,11.502-40.195
		c14.135-22.746,40.673-37.406,67.525-36.528c66.342-0.008,132.692,0,199.034,0C662.047,281.246,671.786,282.013,680.852,278.754z"
		/>
	<path fill="#574F5E" stroke="#574F5E" d="M1771.911,282.201c4.505-2.045,9.512-2.445,14.409-2.272
		c71.576,0.023,143.16-0.016,214.736,0.016c27.244,0.243,53.711,16.478,66.091,40.775c4.623,8.783,7.302,18.578,8.016,28.482
		c0.368,7.31,0.133,14.644,0.204,21.963c0,45.429,0,90.867,0,136.296c-0.055,8.611,0.29,17.269-0.878,25.833
		c-2.061,16.932-8.016,33.355-17.167,47.733c-6.621,10.35-15.122,19.275-22.856,28.764c-5.798,6.707-11.165,13.822-17.261,20.254
		c-0.204-23.122-0.204-46.26-0.008-69.382c1.05-0.149,2.131-0.298,3.236-0.439c-0.172-0.172-0.517-0.517-0.689-0.69
		c11.244-2.578,20.129-11.189,25.802-20.905c3.941-6.801,6.378-14.589,6.307-22.495c-0.023-14.135,0.031-28.278-0.023-42.413
		c-0.063-9.528-8.329-18.084-17.833-18.523c-6.033-0.141-12.074-0.102-18.1-0.024c-9.81,0.282-18.437,8.83-18.891,18.617
		c-0.219,6.574-0.039,13.148-0.071,19.729c-10.162,0-20.325,0.008-30.479-0.008c-0.023-29.03,0.016-58.068-0.016-87.098
		c0.024-11.839-5.054-23.514-13.579-31.694c-7.53-7.256-17.692-11.855-28.16-12.333c-46.636-0.235-93.272-0.031-139.908-0.125
		c-2.241-0.023-4.474,0.016-6.684,0.157c-3.33,0.118-6.613,0.776-9.81,1.653c-11.878,3.322-21.383,11.745-29.696,20.49
		c0.039-15.216,0.807-30.48,3.275-45.523c2.084-12.388,5.093-24.783,10.68-36.105C1756.836,294.425,1762.9,286.064,1771.911,282.201
		z"/>
	<path fill="#30A0C8" stroke="#30A0C8" d="M963.763,291.102c2.554-0.321,5.132-0.259,7.702-0.071
		c-0.031,9.05-0.039,18.092,0.023,27.134c-0.094,12.074,0.039,24.149-0.031,36.223c-12.615,0.407-24.807,7.679-30.73,18.883
		c-7.373,13.109-5.093,30.715,5.328,41.551c8.305,8.964,21.375,13.273,33.363,10.64c8-1.583,15.295-6.104,20.521-12.341
		c9.747,9.34,19.087,19.103,28.693,28.583c0.776,0.69,1.591,1.332,2.421,2.006c-2.531,2.891-5.406,5.438-8.204,8.063
		c1.606,6.981,3.502,13.9,4.944,20.92c-4.364,2.562-8.729,5.124-13.148,7.592c-5.406-4.858-10.507-10.053-15.874-14.942
		c-4.309,1.575-9.073,2.1-13.25,3.722c-2.5,6.707-4.098,13.751-6.276,20.576c-5.156,0.243-10.327,0.274-15.475-0.023
		c-1.849-6.323-3.706-12.638-5.571-18.946c-0.4-0.854-0.486-2.241-1.646-2.374c-3.957-1.003-7.914-1.982-11.761-3.354
		c-5.641,4.913-10.805,10.35-16.384,15.334c-4.427-2.484-8.823-5.022-13.187-7.6c1.536-7.397,3.62-14.676,5.148-22.08
		c-3.252-2.868-6.198-6.025-9.175-9.16c-6.425,1.528-12.85,3.071-19.244,4.725c-0.697,0.125-2.084,0.376-2.774,0.509
		c-2.523-4.388-5.038-8.776-7.616-13.124c5.062-5.79,10.711-11.056,15.726-16.885c-1.45-3.863-2.217-7.922-3.307-11.878
		c-7.068-2.852-14.738-4.27-21.923-6.903c0.031-5.015,0.063-10.029,0-15.036c7.091-2.546,14.48-4.223,21.61-6.652
		c1.638-3.839,1.943-8.258,3.596-12.168c-4.975-5.861-10.664-11.087-15.686-16.901c2.601-4.325,5.023-8.752,7.608-13.085
		c7.365,1.606,14.676,3.518,22.025,5.226c2.954-3.15,5.908-6.307,9.16-9.167c-1.512-7.428-3.651-14.723-5.109-22.158
		c4.372-2.507,8.721-5.085,13.132-7.538c5.563,5.015,10.797,10.405,16.423,15.349c4.035-1.551,8.266-2.437,12.435-3.549
		C959.932,305.379,961.546,298.107,963.763,291.102z"/>
	<path fill="#FFDA82" stroke="#FFDA82" d="M849.265,301.406c2.069-2.711,3.024-6.135,5.203-8.776c1.7,2.899,3.024,6.033,4.928,8.807
		c2.782,1.927,6.049,3.056,8.776,5.085c-2.923,1.685-6.033,3.04-8.815,4.928c-1.896,2.836-3.181,6.033-5.093,8.862
		c-1.692-2.907-3.103-5.986-4.921-8.807c-2.821-1.959-6.065-3.236-8.893-5.195C843.381,304.665,846.468,303.279,849.265,301.406z"/>
	<path fill="#91BFCF" stroke="#91BFCF" d="M971.489,318.166c152.633-0.016,305.258,0.016,457.883-0.016
		c-0.016,18.444-0.008,36.889,0,55.326c0.071,6.84-5.939,13.109-12.803,13.179c-16.823,0.094-33.653-0.023-50.475,0.063
		c-37.406-0.102-74.804,0.024-112.21-0.063c-35.643-0.102-71.294-0.094-106.937-0.008c-25.34,0.086-50.679,0-76.019,0.047
		c-20.928,0.008-41.849,0-62.777,0c-0.298,0.008-0.885,0.023-1.183,0.023c-7.663-0.125-15.334,0.094-22.989-0.086
		c-6.441-0.251-12.074-5.869-12.419-12.286c-0.392-6.652,0.18-13.312-0.102-19.957C971.528,342.314,971.395,330.24,971.489,318.166z
		"/>
	<path fill="#FEDA81" stroke="#FEDA81" d="M1501.457,344.156c1.74-2.836,3.079-5.916,4.913-8.713
		c1.669,2.993,3.119,6.119,4.999,8.987c2.868,1.771,5.916,3.267,8.893,4.889c-2.938,1.904-6.268,3.173-9.081,5.25
		c-1.794,2.829-3.118,5.924-4.936,8.744c-1.677-2.923-3.118-5.978-4.905-8.823c-2.86-1.982-6.096-3.33-9.034-5.163
		C1495.346,347.603,1498.613,346.209,1501.457,344.156z"/>
	<path fill="#0982AF" stroke="#0982AF" d="M940.727,373.272c5.924-11.205,18.115-18.476,30.73-18.883
		c0.282,6.644-0.29,13.304,0.102,19.957c0.345,6.417,5.978,12.035,12.419,12.286c7.655,0.18,15.326-0.039,22.989,0.086
		c-6.707,3.307-13.853,5.571-20.654,8.674c-13.61,6.049-27.369,11.933-40.258,19.432
		C935.634,403.987,933.354,386.381,940.727,373.272z"/>
	<path fill="#30A0C8" stroke="#30A0C8" d="M798.1,361.652c0.964-3.33,6.284-3.299,7.083,0.11c0.572,4.427,0.047,8.917,0.251,13.375
		c4.168,0.188,8.352-0.125,12.537,0.102c1.692-0.094,3.009,1.395,3.377,2.938c0.423,2.1-1.309,4.357-3.463,4.404
		c-4.176,0.204-8.368-0.133-12.544,0.125c-0.149,4.443,0.455,8.924-0.18,13.344c-0.846,3.299-5.986,3.416-7.013,0.196
		c-0.682-4.498,0.086-9.097-0.313-13.626c-4.451-0.149-8.924,0.266-13.359-0.149c-3.353-0.87-3.408-6.237-0.039-7.122
		c4.443-0.478,8.932,0,13.391-0.196C798.155,370.655,797.599,366.126,798.1,361.652z"/>
	<path fill="#EBEBEB" stroke="#EBEBEB" d="M1768.299,364.073c3.197-0.878,6.48-1.536,9.81-1.653
		c4.427,1.512,9.152,0.744,13.743,0.893c12.02-0.071,24.039,0.118,36.058-0.11c-0.165,7.608-0.094,15.216-0.063,22.824
		c0.047,5.508-0.501,11.087,0.736,16.517c3.636,18.045,7.122,36.129,10.93,54.142c0.345,1.779,0.47,3.589,0.447,5.406
		c-4.051,30.009-8.047,60.027-12.051,90.044c-1.356,7.099,4.09,14.033,11.04,15.271c-0.321,9.583-0.118,19.181-0.133,28.764
		c-7.389-0.682-14.558-2.515-21.782-4.051c0.697,7.436,3.62,14.652,8.423,20.388c3.267,4.059,7.608,7.075,12.098,9.653
		c0.29,0.141,0.878,0.431,1.167,0.572c0.313,18.993-0.282,38.002,0.29,56.987c13.712,0.392,27.455-0.274,41.159,0.329l0.11,0.823
		c-13.038,0.07-26.068,0-39.099,0.031c-9.442,0.274-18.938-1.246-27.745-4.662c-21.665-8.18-38.581-27.714-43.455-50.374
		c-2.703-11.338-1.238-23.044-1.638-34.562c0.086-43.04-0.016-86.095,0.055-129.135c2.311,2.946,6.253,4.975,10.014,3.667
		c3.878-1.363,7.702-3.15,11.902-3.314c5.735-0.588,11.487,0.737,16.682,3.165c4.208,2.116,9.786,0.125,11.784-4.121
		c2.257-4.106,0.517-9.747-3.62-11.91c-12.035-6.339-26.797-6.966-39.475-2.17c-2.781,0.94-5.406,2.398-7.342,4.631
		C1768.377,422.768,1768.463,393.417,1768.299,364.073 M1789.102,482.176c-5.453,1.826-8.901,8-7.53,13.594
		c1.144,5.688,6.966,9.912,12.74,9.136c6.887-0.494,12.074-8.008,10.108-14.636C1802.9,483.813,1795.307,479.7,1789.102,482.176z"/>
	<path fill="#FFFFFF" stroke="#FFFFFF" d="M1778.109,362.42c2.21-0.141,4.443-0.18,6.684-0.157
		c46.636,0.094,93.272-0.11,139.908,0.125c-4.239,1.222-8.658,0.588-12.975,0.705c-27.941,0.078-55.882-0.141-83.815,0.11
		c-12.02,0.227-24.039,0.039-36.058,0.11C1787.26,363.164,1782.536,363.932,1778.109,362.42z"/>
	<path fill="#E1E1E1" stroke="#E1E1E1" d="M1924.701,362.389c10.468,0.478,20.63,5.077,28.16,12.333
		c8.525,8.18,13.602,19.855,13.579,31.694c0.031,29.03-0.008,58.068,0.016,87.098c10.155,0.016,20.317,0.008,30.479,0.008
		c0.031-6.582-0.149-13.156,0.071-19.729c0.454-9.786,9.081-18.335,18.891-18.617c6.025-0.078,12.067-0.117,18.1,0.024
		c9.504,0.439,17.771,8.995,17.833,18.523c0.055,14.135,0,28.278,0.023,42.413c0.071,7.906-2.366,15.694-6.307,22.495
		c-5.673,9.716-14.558,18.327-25.802,20.905c-1.136,0.086-2.249,0.18-3.338,0.282c0.023,23.78,0.055,47.561-0.016,71.341
		l-0.024,0.737c-1.927-3.299-1.207-7.185-1.285-10.797c-0.055-20.388,0.11-40.767-0.047-61.147
		c-7.906-0.282-15.835-0.384-23.726,0.047c0.157,19.847,0.11,39.702,0.055,59.549c-0.031,16.117-6.511,32.227-18.225,43.392
		c-9.363,9.763-22.284,15.655-35.596,17.481c8.878,0.517,17.778,0.094,26.672,0.227c17.05,0.086,34.092-0.172,51.141,0.149
		c-4.983,1.011-10.069,0.501-15.091,0.58c-20.897,0.039-41.794-0.063-62.691,0.047c-4.991-0.016-9.951-0.729-14.926-0.666
		c-13.845,0.11-27.682-0.086-41.512,0.078c-0.878,7.796,0.58,15.71-0.705,23.475c-0.259-7.812,0.063-15.632-0.149-23.435
		l-0.11-0.823c-13.704-0.603-27.447,0.063-41.159-0.329c-0.572-18.985,0.024-37.994-0.29-56.987
		c8.917,3.487,19.103,4.082,28.105,0.517c12.999-4.78,22.198-17.551,23.483-31.232c-16.728,4.505-34.256,6.065-51.494,4.153
		c0.016-9.583-0.188-19.181,0.133-28.764c5.156,0.125,10.327,0.188,15.49,0.071c7.718-0.337,14.049-7.741,13.743-15.365
		c0.047-4.913-3.291-9.567-7.906-11.158c-2.202-0.69-4.529-0.619-6.77-0.752c-0.196-22.417,0.024-44.834-0.102-67.251
		c0.063-6.942-6.229-12.842-13.077-12.826c-0.094,0.494-0.274,1.481-0.368,1.967c0.024-1.818-0.102-3.628-0.447-5.406
		c-3.808-18.014-7.295-36.098-10.93-54.142c-1.238-5.43-0.689-11.009-0.736-16.517c-0.031-7.608-0.102-15.216,0.063-22.824
		c27.933-0.251,55.874-0.031,83.815-0.11C1916.042,362.976,1920.461,363.611,1924.701,362.389 M1890.766,445.099
		c-4.286,0.776-8.494,2.084-12.396,4.012c-3.063,1.489-5.077,4.858-4.936,8.258c0.024,4.286,3.495,8.235,7.765,8.76
		c2.938,0.564,5.61-1.136,8.305-2.045c7.593-2.711,16.219-2.076,23.459,1.426c4.114,2.257,9.763,0.643,12.004-3.502
		c2.515-4.082,0.964-9.99-3.244-12.278C1912.328,444.73,1901.21,443.273,1890.766,445.099 M1893.069,481.854
		c-5.681,1.371-9.755,7.397-8.666,13.187c0.768,5.884,6.574,10.539,12.505,9.904c6.198-0.282,11.393-6.268,10.789-12.45
		C1907.541,485.404,1899.862,479.833,1893.069,481.854z"/>
	<path fill="#363636" stroke="#363636" d="M459.432,365.946l0.697,0.008c0.086,40.509-0.031,81.018,0.055,121.534
		c-10.468-0.055-20.936-0.047-31.396-0.008c-0.063-7.287,0.227-14.589-0.149-21.861c0.266,0.023,0.799,0.078,1.066,0.102
		c0.031,6.973-0.266,13.955,0.11,20.92c9.818,0.227,19.659,0.235,29.484-0.008C459.604,446.407,459.33,406.173,459.432,365.946z"/>
	<path fill="#FFFFFF" stroke="#FFFFFF" d="M460.129,365.954c67.925,0.086,135.85,0.008,203.774-0.039
		c-0.008,65.997,0,131.995,0,197.992c-0.157,16.352,0.306,32.736-0.243,49.073c-0.36-1.457-0.831-2.899-0.878-4.388
		c0.07-44.144-0.008-88.289,0.031-132.433c-0.047-9.449,0.149-18.891-0.243-28.333v-0.635c0.486-19.604,0.118-39.216,0.243-58.82
		c-0.055-7.06,0.133-14.127-0.086-21.187c-23.537-0.274-47.083,0.071-70.62-0.165c-22.409-0.368-44.834-0.047-67.243-0.157
		c-21.195,0.086-42.389-0.157-63.576,0.117c-0.274,36.372-0.031,72.759-0.118,109.147c-0.102,3.573,0.259,7.169-0.133,10.734
		c-0.36,1.583-2.264,1.481-3.518,1.52c-9.583-0.086-19.165,0-28.74-0.039c0-0.219,0.008-0.65,0.008-0.862
		c10.46-0.039,20.928-0.047,31.396,0.008C460.098,446.971,460.216,406.463,460.129,365.954z"/>
	<path fill="#E1E1E1" stroke="#E1E1E1" d="M461.289,366.98c21.187-0.274,42.382-0.031,63.576-0.117
		c22.409,0.11,44.834-0.212,67.243,0.157c0.392,7.459,2.092,14.754,3.15,22.135c2.084,14.112,4.435,28.176,6.495,42.288
		c0.619,5.226,1.975,10.374,2.249,15.639c-3.549,3.267-8.877,3.784-13.156,5.892c-0.157,1.207-0.321,2.421-0.423,3.651
		c-0.18-1.183-0.407-2.358-0.596-3.518c-7.208,0.008-13.688,6.331-13.453,13.61c-0.031,30.832,0,61.672-0.016,92.512
		c-0.133,1.802,0.478,4.302,2.695,4.388c4.114,0.211,8.243-0.157,12.372-0.165c0.235,9.865,0.039,19.737,0.117,29.602
		c-16.462,1.661-33.292,0.854-49.308-3.471c-1.261-0.313-2.531-0.564-3.784-0.815c1.105,11.557,7.514,22.535,17.402,28.732
		c10.499,6.934,24.439,7.647,35.886,2.656c-0.611,19.565,0.133,39.161-0.392,58.726c-9.614,0.407-19.236-0.024-28.858,0.157
		c-5.023,0.196-10.163-0.674-15.075,0.713c-3.769,1.042-7.726,0.658-11.581,0.737c-42.389,0.031-84.771,0.243-127.16,0.157v-0.784
		c20.975,0.172,41.958,0.039,62.941,0.07c6.018-0.094,12.059,0.353,18.061-0.313c-15.263-1.888-29.618-9.598-39.71-21.179
		c-9.026-10.609-14.762-24.172-15.302-38.143c-0.298-21.539,0.266-43.094-0.259-64.61c-8.172-0.525-16.392-0.196-24.572-0.196
		c-0.188,14.817-0.086,29.649-0.055,44.474c0.078,1.316-0.368,2.586-1.113,3.667c-0.282-15.968-0.11-31.96-0.086-47.937
		c-0.588-0.071-1.763-0.204-2.351-0.266c-7.741-1.183-14.488-5.822-19.808-11.377c-8.744-9.097-14.456-21.516-14.151-34.264
		c0.024-11.745,0.008-23.483,0.016-35.22c0.086-4.717-0.541-9.645,1.371-14.096c2.821-7.224,10.186-12.458,17.982-12.45
		c6.033,0,12.066-0.094,18.092,0.055c9.442,0.454,17.481,8.313,18.907,17.543c0.376,7.271,0.086,14.574,0.149,21.861
		c0,0.212-0.008,0.643-0.008,0.862c9.575,0.039,19.157-0.047,28.74,0.039c1.254-0.039,3.158,0.063,3.518-1.52
		c0.392-3.565,0.031-7.162,0.133-10.734C461.258,439.739,461.015,403.352,461.289,366.98 M504.752,436.574
		c-4.756,1.481-8.157,6.354-7.781,11.346c0.031,5.916,5.524,11.103,11.44,10.789c8.36,0,16.728,0.024,25.089-0.016
		c5.837,0.18,11.071-4.944,11.173-10.758c0.501-5.916-4.482-11.628-10.429-11.824c-7.31-0.196-14.621,0.008-21.923-0.078
		C509.79,436.057,507.196,435.83,504.752,436.574 M528.297,475.884c-4.85,1.771-8.188,6.911-7.749,12.074
		c0.227,6.472,6.448,11.925,12.913,11.291c7.036-0.313,12.631-7.663,10.97-14.527C543.169,477.694,534.926,473.063,528.297,475.884z
		"/>
	<path fill="#EBEBEB" stroke="#EBEBEB" d="M592.108,367.019c23.537,0.235,47.083-0.11,70.62,0.165
		c0.219,7.06,0.031,14.127,0.086,21.187c-0.125,19.604,0.243,39.216-0.243,58.82c-0.407-3.863-2.351-7.718-5.837-9.645
		c-2.891-1.763-6.394-1.512-9.63-1.512c-7.342,0.118-14.683-0.118-22.017,0.086c-5.681,0.188-10.539,5.399-10.452,11.064
		c-0.306,5.822,4.623,11.354,10.499,11.471c7.569,0.157,15.154-0.031,22.73,0.078c3.087-0.008,6.456,0.172,9.136-1.653
		c3.283-1.935,5.077-5.579,5.571-9.254c0.392,9.442,0.196,18.883,0.243,28.333c-0.039,44.144,0.039,88.289-0.031,132.433
		c0.047,1.489,0.517,2.93,0.878,4.388c-1.309,25.199-17.457,48.775-40.078,59.792c-9.011,4.443-18.954,6.981-28.991,7.412
		c-15.349,0.118-30.722-0.118-46.064,0.11c-1.293,1.379-0.995,3.353-1.042,5.093c0.055,3.894,0.11,7.796,0,11.706
		c-0.031,2.57-0.337,5.32,1.128,7.616l0.102,0.212c-10.061-0.102-20.121-0.212-30.166,0.149
		c-21.148-0.118-42.303,0.235-63.443-0.235c-15.475-0.063-30.957,0.125-46.425,0.016c-0.023-8.07-0.016-16.141-0.008-24.203
		c42.389,0.086,84.771-0.125,127.16-0.157c3.855-0.078,7.812,0.306,11.581-0.737c4.913-1.387,10.053-0.517,15.075-0.713
		c9.622-0.18,19.244,0.251,28.858-0.157c0.525-19.565-0.219-39.161,0.392-58.726l0.282-0.133c4.153-2.163,8.125-4.772,11.369-8.18
		c5.931-6.198,9.512-14.441,10.492-22.918c-7.436,1.473-14.77,3.44-22.339,4.129c-0.078-9.865,0.118-19.737-0.117-29.602
		c6.942-1.301,12.396-8.18,11.275-15.302c-4.114-30.503-8.141-61.022-12.278-91.525c0.102-1.23,0.266-2.445,0.423-3.651
		c4.278-2.108,9.606-2.625,13.156-5.892c-0.274-5.265-1.63-10.413-2.249-15.639c-2.061-14.112-4.411-28.176-6.495-42.288
		C594.2,381.773,592.5,374.479,592.108,367.019 M635.469,475.477c-6.417,1.512-10.648,8.846-8.564,15.146
		c1.669,6.127,8.682,10.068,14.785,8.219c6.276-1.559,10.374-8.736,8.431-14.934C648.554,477.757,641.581,473.706,635.469,475.477z"
		/>
	<path fill="#FFDA82" stroke="#FFDA82" d="M1577.398,378.522c2.695,4.505,4.952,9.277,7.679,13.775
		c4.482,2.891,9.363,5.195,14.025,7.828c-4.388,2.437-8.83,4.795-13.218,7.24c-1.073,0.494-1.442,1.685-1.982,2.617
		c-2.155,3.949-4.286,7.898-6.48,11.816c-2.601-4.686-4.928-9.551-7.82-14.041c-4.497-2.703-9.214-5.022-13.751-7.639
		c4.56-2.562,9.254-4.905,13.759-7.585C1572.485,388.049,1574.828,383.199,1577.398,378.522z"/>
	<path fill="#0978A3" stroke="#0978A3" d="M1006.967,386.717c0.298,0,0.885-0.016,1.183-0.023c0.47,9.426-2.076,19.118-8.212,26.429
		c-5.226,6.237-12.521,10.758-20.521,12.341c-11.988,2.633-25.057-1.677-33.363-10.64c12.889-7.498,26.648-13.383,40.258-19.432
		C993.115,392.288,1000.26,390.024,1006.967,386.717z"/>
	<path fill="#2993BA" stroke="#2993BA" d="M1008.151,386.694c20.928,0,41.849,0.008,62.777,0c0.055,3.698,0.117,7.404,0.063,11.118
		c-6.26,2.327-12.803,3.777-19.11,5.931c-1.677,0.29-1.771,2.084-2.076,3.408c-0.697,3.675-1.927,7.209-2.93,10.805
		c4.623,5.273,9.802,10.045,14.347,15.381c-1.896,4.678-4.897,8.917-7.452,13.297c-7.013-1.418-13.869-3.495-20.889-4.827
		c-0.627,0.627-1.23,1.261-1.826,1.904c-0.831-0.674-1.645-1.316-2.421-2.006c-9.606-9.481-18.946-19.244-28.693-28.583
		C1006.074,405.812,1008.621,396.12,1008.151,386.694z"/>
	<path fill="#0978A3" stroke="#0978A3" d="M1070.928,386.694c25.339-0.047,50.679,0.039,76.019-0.047
		c-2.742,26.35-5.657,52.685-8.439,79.035c-5.634-0.016-11.259-0.024-16.885-0.008c-0.023,3.189-0.023,6.386,0.024,9.59
		c52.513-0.063,105.025-0.039,157.538-0.016c0-3.189,0-6.37,0.047-9.551c-5.634-0.055-11.259-0.016-16.877-0.016
		c-2.781-26.35-5.618-52.685-8.47-79.028c37.406,0.086,74.804-0.039,112.21,0.063c6.096,3.581,13.093,5.148,19.393,8.329
		c13.829,5.649,27.118,12.497,40.47,19.189c23.968,12.952,47.051,27.62,68.763,44.082c2.499,1.747,1.645,5.085,1.786,7.694
		c-0.039,35.22,0.008,70.44-0.024,105.668c-0.063,6.221,0.204,12.45-0.212,18.672c-30.754,0.29-61.516,0.008-92.277,0.141
		c-13.022-0.204-26.068,0.188-39.067-0.18c-4.458-2.045-8.329-5.171-12.615-7.53c-21.007-12.403-43.471-22.339-66.703-29.743
		c-8.525-2.766-17.144-5.265-25.927-7.021c-18.429-4.552-37.359-6.582-56.25-7.976c-10.719-0.133-21.445-0.141-32.156-0.024
		c-7.357-0.047-14.629,1.16-21.939,1.74c-35.236,3.918-69.782,13.688-101.86,28.779c-7.373,3.095-14.401,6.919-21.328,10.891
		c-12.936,7.021-25.05,15.459-36.952,24.094c-8.29,6.566-16.65,13.093-24.266,20.443c-5.853,4.513-10.437,10.413-16.055,15.185
		c-0.478-8.87,0.039-17.771-0.086-26.648c-0.133-25.073-0.078-50.139-0.023-75.212c-0.172-7.255,0.353-14.535-0.227-21.774
		c-8.282-0.47-16.587-0.047-24.885-0.149c-26.107-0.008-52.215-0.055-78.314-0.016c-10.194-0.188-20.395,0.259-30.574-0.196
		c5.947-6.511,12.443-12.497,18.593-18.821c3.408-3.683,7.687-6.417,10.985-10.225c14.848-13.218,30.268-25.872,46.566-37.288
		c1.066-0.486,0.87-1.708,1.042-2.656c6.394-1.653,12.819-3.197,19.244-4.725c2.977,3.134,5.923,6.292,9.175,9.16
		c-1.528,7.404-3.612,14.683-5.148,22.08c4.364,2.578,8.76,5.116,13.187,7.6c5.579-4.983,10.742-10.421,16.384-15.334
		c3.847,1.371,7.804,2.351,11.761,3.354c1.16,0.133,1.246,1.52,1.646,2.374c1.865,6.307,3.722,12.623,5.571,18.946
		c5.148,0.298,10.319,0.266,15.475,0.023c2.178-6.825,3.777-13.869,6.276-20.576c4.176-1.622,8.94-2.147,13.25-3.722
		c5.367,4.889,10.468,10.084,15.874,14.942c4.419-2.468,8.784-5.03,13.148-7.592c-1.442-7.02-3.338-13.939-4.944-20.92
		c2.797-2.625,5.673-5.171,8.204-8.063c0.596-0.643,1.199-1.277,1.826-1.904c7.02,1.332,13.876,3.408,20.889,4.827
		c2.554-4.38,5.555-8.619,7.452-13.297c-4.545-5.336-9.724-10.108-14.347-15.381c1.003-3.596,2.233-7.13,2.93-10.805
		c0.306-1.324,0.4-3.118,2.076-3.408c6.307-2.155,12.85-3.604,19.11-5.931C1071.045,394.098,1070.982,390.392,1070.928,386.694z"/>
	<path fill="#789EAB" stroke="#789EAB" d="M1146.946,386.647c35.643-0.086,71.294-0.094,106.937,0.008
		c2.852,26.342,5.688,52.677,8.47,79.028c-41.285,0.031-82.561,0.031-123.846,0C1141.289,439.332,1144.204,412.997,1146.946,386.647
		z"/>
	<path fill="#30A0C8" stroke="#30A0C8" d="M778.386,432.758c0.666-3.471,6.104-3.628,7.083-0.259
		c0.611,4.497-0.235,9.066,0.447,13.563c4.137,0.016,8.282-0.188,12.427,0.024c2.539,0.047,4.317,3.401,2.852,5.516
		c-0.729,1.316-2.225,1.943-3.667,1.935c-3.926,0.188-7.859-0.055-11.777,0.039c-0.345,4.537,0.29,9.12-0.313,13.634
		c-1.183,3.111-5.963,3.009-7.013-0.149c-0.556-4.49,0.157-9.034-0.337-13.532c-4.474-0.125-9.003,0.454-13.438-0.259
		c-3.212-0.979-3.181-6.072,0.031-7.044c4.498-0.627,9.066,0.172,13.587-0.376C778.378,441.487,778.002,437.107,778.386,432.758z"/>
	<path fill="#BEB8C2" stroke="#BEB8C2" d="M504.752,436.574c2.445-0.744,5.038-0.517,7.569-0.541
		c7.303,0.086,14.613-0.118,21.923,0.078c5.947,0.196,10.93,5.908,10.429,11.824c-0.102,5.814-5.336,10.938-11.173,10.758
		c-8.36,0.039-16.729,0.016-25.089,0.016c-5.916,0.313-11.408-4.874-11.44-10.789C496.595,442.928,499.996,438.055,504.752,436.574z
		"/>
	<path fill="#BEB8C2" stroke="#BEB8C2" d="M614.635,447.183c-0.086-5.665,4.772-10.875,10.452-11.064
		c7.334-0.204,14.676,0.031,22.017-0.086c3.236,0,6.738-0.251,9.63,1.512c3.487,1.928,5.43,5.783,5.837,9.645v0.635
		c-0.494,3.675-2.288,7.318-5.571,9.254c-2.68,1.826-6.049,1.645-9.136,1.653c-7.577-0.11-15.161,0.078-22.73-0.078
		C619.258,458.536,614.329,453.005,614.635,447.183z"/>
	<path fill="#FFDA82" stroke="#FFDA82" d="M1645.44,438.854c3.056,5.226,5.712,10.68,8.83,15.867
		c5.164,3.189,10.648,5.869,15.953,8.854c-5.273,3.032-10.789,5.673-15.937,8.901c-3.087,5.171-5.853,10.539-8.736,15.827
		c-3.119-5.234-5.712-10.766-8.909-15.929c-5.171-3.142-10.632-5.759-15.843-8.823c5.265-2.915,10.633-5.665,15.827-8.705
		C1639.767,449.643,1642.557,444.206,1645.44,438.854z"/>
	<path fill="#BEB8C2" stroke="#BEB8C2" d="M1775.687,447.489c12.678-4.795,27.439-4.168,39.475,2.17
		c4.137,2.163,5.876,7.804,3.62,11.91c-1.998,4.247-7.577,6.237-11.784,4.121c-5.195-2.429-10.946-3.753-16.682-3.165
		c-4.2,0.165-8.023,1.951-11.902,3.314c-3.761,1.309-7.702-0.721-10.014-3.667c-1.802-3.087-1.747-6.942-0.055-10.053
		C1770.281,449.886,1772.906,448.429,1775.687,447.489z"/>
	<path fill="#BEB8C2" stroke="#BEB8C2" d="M1890.766,445.099c10.445-1.826,21.563-0.368,30.958,4.631
		c4.208,2.288,5.759,8.196,3.244,12.278c-2.241,4.145-7.89,5.759-12.004,3.502c-7.24-3.502-15.867-4.137-23.459-1.426
		c-2.695,0.909-5.367,2.609-8.305,2.045c-4.27-0.525-7.741-4.474-7.765-8.76c-0.141-3.401,1.873-6.77,4.936-8.258
		C1882.272,447.183,1886.48,445.874,1890.766,445.099z"/>
	<path fill="#30A0C8" stroke="#30A0C8" d="M715.492,451.257c0.791-3.22,5.931-3.401,6.981-0.259
		c0.729,4.521-0.165,9.152,0.392,13.704c4.333,0.141,8.697-0.235,13.03,0.125c2.813,0.439,3.73,4.364,1.771,6.26
		c-1.113,1.214-2.891,0.964-4.356,1.05c-3.495-0.016-6.989-0.094-10.484,0.008c-0.392,4.537,0.266,9.128-0.306,13.649
		c-1.136,3.205-6.308,3.103-7.083-0.266c-0.611-4.419,0.165-8.901-0.219-13.336c-4.184-0.235-8.368,0.063-12.537-0.125
		c-1.724,0.102-3.048-1.434-3.393-2.985c-0.4-2.123,1.363-4.396,3.557-4.349c4.129-0.188,8.274,0.18,12.411-0.149
		C715.46,460.143,714.818,455.661,715.492,451.257z"/>
	<path fill="#BEB8C2" stroke="#BEB8C2" d="M576.375,466.717c-0.235-7.279,6.245-13.602,13.453-13.61
		c0.188,1.16,0.415,2.335,0.596,3.518c4.137,30.503,8.164,61.022,12.278,91.525c1.12,7.122-4.333,14.002-11.275,15.302
		c-4.129,0.008-8.258,0.376-12.372,0.165c-2.217-0.086-2.829-2.586-2.695-4.388C576.375,528.389,576.344,497.549,576.375,466.717z"
		/>
	<path fill="#BEB8C2" stroke="#BEB8C2" d="M1840.329,460.127c6.848-0.016,13.14,5.884,13.077,12.826
		c0.125,22.417-0.094,44.834,0.102,67.251c2.241,0.133,4.568,0.063,6.77,0.752c4.615,1.591,7.953,6.245,7.906,11.158
		c0.306,7.624-6.025,15.028-13.743,15.365c-5.163,0.117-10.335,0.055-15.49-0.071c-6.95-1.238-12.396-8.172-11.04-15.271
		c4.004-30.017,8-60.035,12.051-90.044C1840.055,461.608,1840.235,460.621,1840.329,460.127z"/>
	<path fill="#91BFCF" stroke="#91BFCF" d="M1121.622,465.674c5.626-0.016,11.252-0.008,16.885,0.008
		c41.285,0.031,82.561,0.031,123.846,0c5.618,0,11.244-0.039,16.877,0.016c-0.047,3.181-0.047,6.362-0.047,9.551
		c-52.513-0.023-105.025-0.047-157.538,0.016C1121.599,472.06,1121.599,468.863,1121.622,465.674z"/>
	<path fill="#544C5B" stroke="#544C5B" d="M528.297,475.884c6.629-2.821,14.871,1.81,16.133,8.838
		c1.661,6.864-3.933,14.213-10.97,14.527c-6.464,0.635-12.685-4.819-12.913-11.291C520.109,482.795,523.447,477.655,528.297,475.884
		z"/>
	<path fill="#574F5E" stroke="#574F5E" d="M635.469,475.477c6.112-1.771,13.085,2.28,14.652,8.431
		c1.943,6.198-2.155,13.375-8.431,14.934c-6.104,1.849-13.116-2.092-14.785-8.219C624.821,484.323,629.052,476.989,635.469,475.477z
		"/>
	<path fill="#574F5E" stroke="#574F5E" d="M1789.102,482.176c6.206-2.476,13.798,1.638,15.318,8.094
		c1.967,6.629-3.22,14.143-10.108,14.636c-5.775,0.776-11.596-3.448-12.74-9.136
		C1780.201,490.176,1783.648,484.001,1789.102,482.176z"/>
	<path fill="#544C5B" stroke="#544C5B" d="M1893.069,481.854c6.793-2.021,14.472,3.549,14.629,10.64
		c0.603,6.182-4.592,12.168-10.789,12.45c-5.931,0.635-11.737-4.02-12.505-9.904
		C1883.314,489.251,1887.388,483.226,1893.069,481.854z"/>
	<path fill="#0978A3" stroke="#0978A3" d="M1534.209,491.805c3.126,2.562,5.688,5.728,8.878,8.243
		c5.963,5.242,10.789,11.573,16.595,17.003c3.589,3.228,6.496,7.107,9.677,10.727c47.279,53.375,83.078,116.857,104.187,184.969
		c3.651,11.33,6.707,22.856,9.543,34.429c1.309,5.116,1.935,10.429,3.902,15.373c-33.473,33.473-66.938,66.953-100.41,100.426
		c-4.623,4.599-9.246,9.191-13.806,13.845c-12.513-12.521-25.026-25.034-37.539-37.547c-1.865-1.833-3.604-3.792-5.665-5.391
		c0.243-15.036,0-30.088,0.125-45.124c0.071-4.231-0.752-8.423-2.021-12.435c-1.833-6.072-5.328-11.596-9.732-16.117
		c-4.215-4.545-10.123-6.958-14.441-11.369c-7.381-6.958-11.181-16.783-13.007-26.57c-2.711-14.221-3.479-28.936-8.76-42.554
		c-2.28-5.649-4.592-11.706-9.481-15.632c-7.859-6.637-20.67-6.848-28.286,0.282c-0.705-1.833-1.622-3.596-2.899-5.085
		c-8.031-9.685-16.368-19.118-25.449-27.831c-1.183-1.081-2.257-2.264-3.259-3.479c2.844-0.948,5.884-0.415,8.83-0.494
		c22.229-0.023,44.45-0.008,66.679-0.008c15.334-0.11,30.691,0.227,46.017-0.196c0.274-34.695-0.008-69.414,0.117-104.116
		C1534.186,512.71,1533.614,502.234,1534.209,491.805z"/>
	<path fill="#30A0C8" stroke="#30A0C8" d="M721.063,523.366c0.924-3.307,6.237-3.236,7.091,0.094
		c0.455,4.333-0.164,8.705,0.235,13.046l0.392,0.376c4.341,0.298,8.721-0.313,13.054,0.212c3.291,0.925,3.252,6.057,0.055,7.044
		c-4.466,0.595-8.995,0.094-13.485,0.243c-0.392,4.49,0.219,9.026-0.298,13.508c-0.972,3.463-6.456,3.158-7.107-0.313
		c-0.353-4.38,0.063-8.776-0.196-13.156c-4.435-0.219-8.901,0.306-13.304-0.219c-3.416-0.838-3.51-6.143-0.141-7.122
		c4.427-0.494,8.909,0.023,13.359-0.141C721.204,532.424,720.53,527.864,721.063,523.366z"/>
	<path fill="#0978A3" stroke="#0978A3" d="M743.495,610.911c11.98-20.043,24.446-39.898,39.208-58.044
		c22.448-0.016,44.904-0.016,67.361-0.008c20.317,0.102,40.65-0.219,60.959,0.141c0.525,19.283,0.11,38.597,0.235,57.896
		c0,24.297-0.016,48.595,0.031,72.892c0.016,1.974-0.274,4.02-1.395,5.712c-25.05,39.177-41.496,83.807-47.976,129.856
		c-2.445,19.823-4.215,39.851-2.75,59.823c-42.585-42.593-85.163-85.186-127.748-127.771c-10.962-10.969-23.514-20.341-37.163-27.69
		c0.815-0.917,1.935-1.653,2.374-2.829c2.938-10.601,6.543-21.014,10.241-31.373c1.802-5.602,4.49-10.852,6.401-16.399
		C721.791,651.663,732.173,631.009,743.495,610.911z"/>
	<path fill="#363636" stroke="#363636" d="M406.23,555.429c0.588,0.063,1.763,0.196,2.351,0.266
		c-0.024,15.976-0.196,31.968,0.086,47.937c-7.13-0.282-14.276-0.055-21.414-0.11l-0.737-0.854
		c7.021,0.039,14.057,0.172,21.085-0.094c0.212-12.623-0.024-25.261,0.094-37.884C407.719,561.54,408.079,558.163,406.23,555.429z"
		/>
	<path fill="#D2D2D2" stroke="#D2D2D2" d="M409.834,555.491c8.18,0,16.399-0.329,24.572,0.196
		c0.525,21.516-0.039,43.071,0.259,64.61c0.541,13.971,6.276,27.534,15.302,38.143c10.092,11.581,24.446,19.291,39.71,21.179
		c-6.002,0.666-12.043,0.219-18.061,0.313c-20.983-0.031-41.966,0.102-62.941-0.07c-0.008-25.41,0.008-50.82-0.008-76.23
		c0.744-1.081,1.191-2.351,1.113-3.667C409.748,585.14,409.646,570.308,409.834,555.491z"/>
	<path fill="#D2D2D2" stroke="#D2D2D2" d="M1991.309,559.997c7.89-0.431,15.82-0.329,23.726-0.047
		c0.157,20.38-0.008,40.76,0.047,61.147c0.078,3.612-0.642,7.498,1.285,10.797c0.321,16.211,0.055,32.501,0.125,48.752
		c-0.282,0.039-0.854,0.11-1.136,0.149c-17.05-0.321-34.092-0.063-51.141-0.149c-8.893-0.133-17.794,0.29-26.672-0.227
		c13.312-1.826,26.233-7.718,35.596-17.481c11.714-11.165,18.194-27.275,18.225-43.392
		C1991.419,599.698,1991.466,579.844,1991.309,559.997z"/>
	<path fill="#363636" stroke="#363636" d="M2016.406,559.816c1.089-0.102,2.202-0.196,3.338-0.282
		c0.172,0.172,0.517,0.517,0.689,0.69c-1.105,0.141-2.186,0.29-3.236,0.439c-0.196,23.122-0.196,46.26,0.008,69.382
		c-0.204,0.282-0.611,0.838-0.815,1.113C2016.46,607.377,2016.429,583.597,2016.406,559.816z"/>
	<path fill="#F4F4F4" stroke="#F4F4F4" d="M538.452,588.768c1.254,0.251,2.523,0.501,3.784,0.815
		c16.016,4.325,32.846,5.132,49.308,3.471c0.259,8.979-0.595,18.029,0.478,26.969l-0.282,0.133
		c-11.447,4.991-25.387,4.278-35.886-2.656C545.966,611.303,539.556,600.325,538.452,588.768z"/>
	<path fill="#FFFFFF" stroke="#FFFFFF" d="M591.544,593.054c7.569-0.69,14.903-2.656,22.339-4.129
		c-0.979,8.478-4.56,16.721-10.492,22.918c-3.244,3.408-7.216,6.018-11.369,8.18C590.949,611.083,591.803,602.033,591.544,593.054z"
		/>
	<path fill="#FFFFFF" stroke="#FFFFFF" d="M1817.035,592.122c7.224,1.536,14.394,3.369,21.782,4.051
		c0.031,7.271-0.047,14.542,0.063,21.822c-0.125,1.442,0.227,3.353-1.324,4.168c-4.49-2.578-8.83-5.594-12.098-9.653
		C1820.655,606.774,1817.732,599.557,1817.035,592.122z"/>
	<path fill="#F4F4F4" stroke="#F4F4F4" d="M1838.817,596.172c17.238,1.912,34.766,0.353,51.494-4.153
		c-1.285,13.68-10.484,26.452-23.483,31.232c-9.003,3.565-19.189,2.97-28.105-0.517c-0.29-0.141-0.878-0.431-1.167-0.572
		c1.551-0.815,1.199-2.727,1.324-4.168C1838.77,610.715,1838.848,603.444,1838.817,596.172z"/>
	<path fill="#FECB4E" stroke="#FECB4E" d="M124.086,603.553c87.725,0.016,175.45,0.094,263.166-0.031
		c7.138,0.055,14.284-0.172,21.414,0.11c0.016,25.41,0,50.82,0.008,76.23v0.784c-0.008,8.063-0.016,16.133,0.008,24.203
		c0.031,85.358-0.07,170.717,0.047,256.075c-14.002-0.008-27.996-0.008-41.998,0C315.23,909.289,263.603,857.78,212.054,806.192
		c-3.338-2.993-5.822-6.903-9.606-9.379c-2.586-3.393-5.775-6.496-9.888-7.937c-6.041-2.437-13.022-1.23-18.319,2.39
		c3.573-4.952,4.717-11.612,2.735-17.418c-2.617-8.18-10.993-14.221-19.643-13.649c-3.847,0.125-7.483,1.653-10.656,3.745
		c2.029-3.377,3.424-7.209,3.307-11.189c0.039-7.6-4.96-14.77-11.839-17.81c-4.364-1.982-9.473-2.116-14.025-0.682
		C124.039,690.698,124.11,647.126,124.086,603.553 M265.084,693.519c-3.118,9.128-6.268,18.241-9.504,27.33
		c-12.537-0.102-25.081-0.094-37.618,0.008c10.045,7.35,19.949,14.887,29.939,22.315c-3.918,11.173-7.804,22.354-11.683,33.543
		c9.802-6.778,19.588-13.587,29.414-20.333c9.708,6.879,19.604,13.492,29.32,20.364c-3.675-11.173-7.365-22.346-11.032-33.528
		c10.217-7.545,20.591-14.879,30.84-22.393c-12.756-0.071-25.512-0.031-38.268-0.016c-3.22-10.061-6.684-20.035-9.826-30.111
		C265.499,691.106,265.522,692.54,265.084,693.519z"/>
	<path fill="#EBEBEB" stroke="#EBEBEB" d="M1443.969,664.364c7.616-7.13,20.427-6.919,28.286-0.282
		c4.889,3.926,7.201,9.982,9.481,15.632c5.281,13.618,6.049,28.333,8.76,42.554c1.826,9.786,5.626,19.612,13.007,26.57
		c4.317,4.411,10.225,6.825,14.441,11.369c4.404,4.521,7.898,10.045,9.732,16.117c-0.76,4.396,1.113,8.635,1.12,13.03
		c-12.873-0.235-25.747-0.063-38.613-0.094c-5.336,0.063-10.664-0.204-15.976,0.212c3.91,2.319,8.078,4.678,10.444,8.752
		c4.568,7.232,3.753,17.379-2.084,23.678c-2.805,3.44-7.091,4.952-11.111,6.425c4.764,1.215,9.387,3.542,12.27,7.679
		c5.453,7.099,5.171,17.959-0.823,24.666c-2.688,3.385-6.848,4.897-10.648,6.621c3.926,1.285,7.89,3.048,10.586,6.323
		c5.328,5.955,6.292,15.302,2.445,22.284c-3.111,5.931-9.512,10.029-16.235,10.217c-4.999,0.18-9.998-0.18-14.981,0.188
		c4.027,1.998,8.211,4.317,10.546,8.353c4.435,6.864,4.09,16.619-1.144,22.965c-2.061,2.688-5.03,4.419-7.82,6.237
		c6.143,0.572,12.427-0.674,18.468,0.924c-5.046,0.705-10.162,0.353-15.224,0.439c-10.985,0.016-21.97,0.031-32.948,0.023
		c-5.665-0.063-11.408,0.368-16.948-1.011c-6.864-1.771-12.615-7.154-14.934-13.837c-1.489-3.941-1.285-8.211-1.254-12.333
		c-0.008-37.618,0-75.227-0.008-112.845c0.016-2.374-0.172-4.772,0.29-7.107c1.003-4.999,5.728-9.019,10.86-9.026
		c14.378-0.031,28.756-0.031,43.134,0c4.999-4.294,7.687-10.687,8.384-17.144c1.262-10.695-0.932-21.414-3.416-31.78
		c-3.745-15.154-9.191-29.821-13.25-44.889c-1.081-4.27-2.225-8.603-2.139-13.038
		C1436.729,675.662,1439.104,668.916,1443.969,664.364z"/>
	<path fill="#FFF9F8" stroke="#FFF9F8" d="M547.486,685.386c0.047-1.74-0.251-3.714,1.042-5.093
		c0.259,8.125,0.086,16.274,0.086,24.415c-1.465-2.296-1.16-5.046-1.128-7.616C547.596,693.182,547.541,689.28,547.486,685.386z"/>
	<path fill="#EBEBEB" stroke="#EBEBEB" d="M1881.136,680.834c13.829-0.164,27.667,0.031,41.512-0.078
		c4.976-0.063,9.935,0.65,14.926,0.666c20.897-0.11,41.794-0.008,62.691-0.047c5.022-0.078,10.108,0.431,15.091-0.58
		c0.282-0.039,0.854-0.11,1.136-0.149c0.016,8.047,0.016,16.094,0,24.149c2.75-0.031,5.516-0.047,8.29-0.031
		c-0.047,13.25-5.955,26.006-15.107,35.432c-10.303,10.797-24.094,17.778-38.456,21.438c-18.382,4.56-38.088,3.839-56.015-2.319
		c-12.552-4.372-24.321-11.573-33.018-21.72c-7.882-9.042-12.654-20.779-12.748-32.83c3.628,0,7.263-0.031,10.907,0.039l0.086-0.494
		C1881.716,696.544,1880.258,688.63,1881.136,680.834z"/>
	<path fill="#FFFFFF" stroke="#FFFFFF" d="M265.084,693.519c0.439-0.979,0.415-2.413,1.583-2.821
		c3.142,10.076,6.605,20.051,9.826,30.111c12.756-0.016,25.512-0.055,38.268,0.016c-10.249,7.514-20.623,14.848-30.84,22.393
		c3.667,11.181,7.357,22.354,11.032,33.528c-9.716-6.872-19.612-13.485-29.32-20.364c-9.826,6.746-19.612,13.555-29.414,20.333
		c3.879-11.189,7.765-22.37,11.683-33.543c-9.99-7.428-19.894-14.966-29.939-22.315c12.537-0.102,25.081-0.11,37.618-0.008
		C258.815,711.76,261.965,702.647,265.084,693.519z"/>
	<path fill="#7FCCE0" stroke="#7FCCE0" d="M408.682,704.849c15.467,0.11,30.95-0.078,46.425-0.016
		c21.14,0.47,42.295,0.118,63.443,0.235c10.045-0.361,20.106-0.251,30.166-0.149c23.122-0.337,46.252-0.047,69.382-0.141
		c26.437-0.165,52.881,6.401,76.16,18.938c13.649,7.35,26.202,16.721,37.163,27.69c42.585,42.585,85.163,85.178,127.748,127.771
		c10.962,10.962,21.923,21.931,32.893,32.893c7.585,7.812,15.702,15.146,22.73,23.49c14.95,18.045,24.078,40.807,25.763,64.18
		c0.306,6.543,0.65,13.203-0.815,19.651c-2.766,13.093-11.291,24.799-22.824,31.569c-7.396,4.38-15.968,6.699-24.556,6.754
		c-33.167-0.039-66.326-0.008-99.493-0.016c-4.96-0.055-9.951,0.274-14.864-0.588c-11.111-1.802-21.367-8.188-27.902-17.348
		c17.418-0.047,34.844-0.016,52.27-0.023c0-35.345,0-70.699,0-106.052c-0.102-6.01,0.211-12.027-0.188-18.029
		c-1.23-16.18-9.998-31.576-23.271-40.908c-9.316-6.754-20.795-10.319-32.282-10.374c-44.145,0-88.281,0-132.418,0
		c-5.649,0.039-11.236,2.374-15.224,6.378c-4.435,4.333-6.77,10.625-6.425,16.799c0.219,8.486,5.931,16.486,13.861,19.502
		c4.435,1.888,9.348,1.403,14.049,1.465c15.929,0.031,31.851-0.094,47.772,0.063c-4.678,2.045-9.371,4.662-12.161,9.128
		c-6.723,9.481-4.215,24.031,5.453,30.566c2.547,1.912,5.61,2.899,8.658,3.714c-5.782,1.496-11.291,4.74-14.448,9.951
		c-5.955,9.05-4.012,22.37,4.552,29.108c2.789,2.382,6.276,3.659,9.739,4.709c-4.834,1.363-9.559,3.73-12.717,7.749
		c-5.132,6.033-6.362,14.879-3.565,22.229c2.805,7.342,9.81,12.905,17.637,13.822c4.419,0.439,8.87,0.063,13.304,0.212l0.086,0.392
		c0.125,44.599-0.023,89.206,0.071,133.805h-0.525c-127.63-0.047-255.268-0.008-382.899-0.024
		c0.031-64.415-0.071-128.829,0.055-193.244c-22.174,21.947-44.113,44.129-66.232,66.13c-11.306,10.891-28.231,15.31-43.471,11.69
		c-6.582-1.512-12.826-4.466-18.178-8.58c-3.526-2.68-6.496-5.994-9.653-9.081c-22.331-22.339-44.662-44.677-67-67.008
		c-1.12-1.12-2.311-2.202-3.048-3.612c4.725,2.374,9.05,5.524,14.01,7.459c9.152,3.926,19.157,5.712,29.093,5.579
		c8.611-0.039,17.222,0.016,25.833-0.024c0.141-7.444,0.047-14.887,0.055-22.331c67.948-0.008,135.889-0.008,203.837,0
		c14.002-0.008,27.996-0.008,41.998,0C408.612,875.566,408.714,790.207,408.682,704.849 M462.378,706.338
		c-0.031,18.335,0.102,36.685-0.071,55.02c-8.556,78.346-17.246,156.676-25.849,235.014c-3.918,36.27-8.172,72.516-11.855,108.81
		c12.302,6.026,24.533,12.184,36.818,18.233c10.39,5.038,20.646,10.554,31.146,15.263c22.558-11.095,45.03-22.409,67.611-33.48
		c-3.307-32.862-7.216-65.668-10.703-98.514c-8.877-80.234-17.684-160.484-26.538-240.726c-0.964-6.707-0.415-13.492-0.556-20.239
		c0-13.132,0.008-26.272,0-39.404C502.378,706.259,482.374,706.212,462.378,706.338z"/>
	<path fill="#9ED76C" stroke="#9ED76C" d="M1785.56,705.68c10.405-1.269,20.897-0.862,31.357-0.917c17.504,0,35.008-0.008,52.52,0
		c0.094,12.051,4.866,23.788,12.748,32.83c8.697,10.147,20.466,17.347,33.018,21.72c17.927,6.159,37.633,6.879,56.015,2.319
		c14.362-3.659,28.153-10.64,38.456-21.438c9.152-9.426,15.06-22.182,15.107-35.432c22.111-0.016,44.223,0.008,66.342-0.008
		c27.51-0.102,54.965,9.222,76.661,26.178c6.942,5.242,12.874,11.636,19.048,17.739c24.18,24.219,48.422,48.383,72.571,72.634
		c-20.983-0.063-41.966,0-62.949-0.031c-35.416-0.008-70.832-0.023-106.247,0.008c-53.453,0-106.906,0-160.359,0
		c0.047,53.5,0.023,107,0.016,160.507c0.016,35.361-0.023,70.73,0.016,106.099c-0.016,28.685-0.008,57.37-0.008,86.064
		c-56.595-0.047-113.19,0.063-169.784-0.063l-0.548-0.008c0.157-101.962-0.039-203.915,0.094-305.877
		c-22.472,22.386-44.865,44.857-67.306,67.282c-5.626,5.594-11.205,11.228-16.838,16.815c-4.223-4.349-8.564-8.572-12.811-12.889
		c-21.892-21.782-43.674-43.674-65.519-65.488c-3.526-3.596-7.193-7.036-10.578-10.75c33.473-33.473,66.938-66.953,100.41-100.426
		c11.197-10.829,21.469-22.762,34.225-31.835C1740.021,716.994,1762.438,708.304,1785.56,705.68z"/>
	<path fill="#30A0C8" stroke="#30A0C8" d="M462.378,706.338c19.996-0.125,40-0.078,60.003-0.023c0.008,13.132,0,26.272,0,39.404
		c0.141,6.746-0.407,13.532,0.556,20.239c8.854,80.242,17.661,160.492,26.538,240.726c3.487,32.846,7.397,65.653,10.703,98.514
		c-22.582,11.071-45.053,22.386-67.611,33.48c-10.499-4.709-20.756-10.225-31.146-15.263c-12.286-6.049-24.517-12.207-36.818-18.233
		c3.683-36.293,7.937-72.54,11.855-108.81c8.603-78.338,17.293-156.668,25.849-235.014
		C462.48,743.023,462.347,724.672,462.378,706.338z"/>
	<path fill="#0978A3" stroke="#0978A3" d="M1187.079,717.135c32.587,0.345,65.237,11.236,90.694,31.772
		c9.418,7.428,17.959,16.008,25.457,25.379c12.905,16.744,22.292,36.239,27.204,56.806c1.136,6.511,3.032,12.921,3.212,19.565
		c0.619,4.858,0.737,9.747,0.713,14.652c-44.434-0.055-88.861-0.008-133.295-0.024c-4.913,0.118-9.849-0.384-14.723,0.345
		c-0.196,40.971-0.031,81.958-0.078,122.937c0.165,8.305-0.36,16.634,0.282,24.932c-10.742-0.18-21.532-1.105-32.047-3.44
		c-12.458-3.017-24.815-6.966-36.082-13.163c-13.571-6.919-26.06-15.976-36.717-26.867c-27.784-27.11-43.533-65.895-43.478-104.618
		c49.316-0.086,98.639-0.063,147.963-0.016l0.149-0.533c0.337-1.05,0.556-2.147,0.541-3.236
		c-0.039-43.361-0.031-86.722-0.016-130.091C1186.914,726.733,1186.578,721.914,1187.079,717.135z"/>
	<path fill="#30A0C8" stroke="#30A0C8" d="M1122.171,731.771c19.894-9.606,41.998-14.676,64.093-14.542
		c0.11,49.214-0.031,98.428,0.07,147.634l-0.149,0.533c-49.324-0.047-98.647-0.071-147.963,0.016
		c-0.094-27.949,7.937-55.874,22.997-79.435C1075.981,762.721,1097.309,743.658,1122.171,731.771z"/>
	<path fill="#EBEBEB" stroke="#EBEBEB" d="M124.117,734.263c4.552-1.434,9.661-1.301,14.025,0.682
		c6.879,3.04,11.878,10.209,11.839,17.81c0.118,3.98-1.277,7.812-3.307,11.189c3.173-2.092,6.809-3.62,10.656-3.745
		c8.65-0.572,17.026,5.469,19.643,13.649c1.982,5.806,0.838,12.466-2.735,17.418c5.297-3.62,12.278-4.827,18.319-2.39
		c4.114,1.442,7.303,4.545,9.888,7.937c3.26,5.563,3.988,12.646,1.191,18.546c-1.465,3.542-4.403,6.088-7.044,8.744
		c-2.492,2.531-5.046,4.999-7.53,7.545c4.529-2.053,9.638-3.377,14.566-1.959c10.398,2.288,17.496,13.963,14.433,24.235
		c-1.363,6.002-6.402,9.896-10.492,14.072c-14.096,14.096-28.168,28.223-42.295,42.28c-1.003,1.12-2.641,2.084-2.429,3.824
		c0.118,15.608-0.071,31.216,0.047,46.824c-0.008,7.444,0.086,14.887-0.055,22.331c-8.611,0.039-17.222-0.016-25.833,0.024
		c-9.935,0.133-19.941-1.653-29.093-5.579c-4.96-1.935-9.285-5.085-14.01-7.459c-3.69-3.495-7.655-6.77-11.009-10.625
		c-10.209-11.495-16.54-26.531-17.246-41.896c0.415-1.708,0.925-3.408,0.956-5.163c-0.055-33.676-0.031-67.353-0.024-101.021
		c-0.219-5.148,0.682-10.413-0.862-15.42c0.501-4.999,3.181-9.598,6.731-13.077c14.503-14.519,29.022-29.022,43.525-43.541
		C118.264,737.186,121.022,735.305,124.117,734.263z"/>
	<path fill="#FFFFFF" stroke="#FFFFFF" d="M1528.795,789.353c-0.008-4.396-1.881-8.635-1.12-13.03
		c1.269,4.012,2.092,8.204,2.021,12.435c-0.125,15.036,0.118,30.088-0.125,45.124c-1.222-2.601-0.596-5.532-0.698-8.282
		C1528.826,813.518,1528.991,801.428,1528.795,789.353z"/>
	<path fill="#DBDBDB" stroke="#DBDBDB" d="M1474.206,789.471c5.312-0.415,10.64-0.149,15.976-0.212
		c12.866,0.031,25.739-0.141,38.613,0.094c0.196,12.074,0.031,24.164,0.078,36.246c0.102,2.75-0.525,5.681,0.698,8.282
		c0.212,12.646,0.047,25.3,0.094,37.947c-0.11,8.258,0.611,16.666-1.465,24.76c-4.693,21.297-21.422,39.435-42.311,45.751
		c-3.831,1.183-7.788,2.233-11.769,2.445c-6.041-1.598-12.325-0.353-18.468-0.924c2.789-1.818,5.759-3.549,7.82-6.237
		c5.234-6.347,5.579-16.102,1.144-22.965c-2.335-4.035-6.519-6.354-10.546-8.353c4.983-0.368,9.982-0.008,14.981-0.188
		c6.723-0.188,13.124-4.286,16.235-10.217c3.847-6.981,2.883-16.329-2.445-22.284c-2.695-3.275-6.66-5.038-10.586-6.323
		c3.8-1.724,7.961-3.236,10.648-6.621c5.994-6.707,6.276-17.567,0.823-24.666c-2.884-4.137-7.506-6.464-12.27-7.679
		c4.02-1.473,8.305-2.985,11.111-6.425c5.837-6.3,6.652-16.446,2.084-23.678C1482.284,794.149,1478.116,791.79,1474.206,789.471z"/>
	<path fill="#FDFAF7" stroke="#FDFAF7" d="M65.72,796.115c1.544,5.007,0.643,10.272,0.862,15.42
		c-0.008,33.669-0.031,67.345,0.024,101.021c-0.031,1.755-0.541,3.455-0.956,5.163c-0.501-33.825-0.071-67.69-0.212-101.523
		C65.587,809.506,65.101,802.783,65.72,796.115z"/>
	<path fill="#F5C24D" stroke="#F5C24D" d="M202.448,796.813c3.784,2.476,6.268,6.386,9.606,9.379
		c51.549,51.588,103.176,103.098,154.678,154.733c-67.948-0.008-135.889-0.008-203.837,0c-0.118-15.608,0.071-31.216-0.047-46.824
		c-0.212-1.739,1.426-2.703,2.429-3.824c14.127-14.057,28.199-28.184,42.295-42.28c4.09-4.176,9.128-8.07,10.492-14.072
		c3.064-10.272-4.035-21.947-14.433-24.235c-4.928-1.418-10.037-0.094-14.566,1.959c2.484-2.547,5.038-5.015,7.53-7.545
		c2.641-2.656,5.579-5.203,7.044-8.744C206.436,809.459,205.707,802.376,202.448,796.813z"/>
	<path fill="#7FCCE0" stroke="#7FCCE0" d="M2090.207,821.283c35.416-0.031,70.832-0.016,106.247-0.008
		c-87.537,87.693-175.206,175.246-262.782,262.892c-1.262,1.246-2.531,2.484-3.792,3.722c-0.039-35.369,0-70.738-0.016-106.099
		c45.061-45.1,90.154-90.177,135.223-135.27C2073.439,838.082,2081.956,829.815,2090.207,821.283 M1961.817,982.895
		c0.172,13.5,0.11,27.008,0.031,40.509c13.54-13.445,27.056-26.914,40.47-40.493
		C1988.809,982.864,1975.309,982.895,1961.817,982.895z"/>
	<path fill="#30A0C8" stroke="#30A0C8" d="M2196.454,821.275c20.983,0.031,41.966-0.031,62.949,0.031
		c29.492-0.078,58.977,0.024,88.469-0.055c0.384,17.363,0.024,34.766,0.173,52.144c-0.243,13.524-0.039,27.056-0.094,40.587
		c-0.039,10.272,0.031,20.544-0.039,30.824c-19.769-0.024-39.529-0.008-59.29-0.016c-6.457-0.149-12.709,3.44-16.133,8.846
		c-4.701,7.083-3.996,17.246,1.654,23.616c2.805,3.377,6.887,5.344,11.055,6.527c-5.03,0.69-9.653,3.44-12.67,7.514
		c-4.67,6.127-5.179,15.067-1.285,21.712c2.828,4.944,7.906,8.572,13.594,9.355c-5.814,1.426-11.291,4.913-13.986,10.398
		c-4.662,8.603-1.739,20.466,6.637,25.661c7.663,5.062,17.222,2.476,25.817,3.165c-7.491,2.006-13.657,8.462-14.558,16.266
		c-1.293,8.039,2.907,16.642,10.241,20.278c3.048,1.653,6.535,2.304,10.006,2.155c12.968-0.031,25.935-0.008,38.91-0.008
		c0.321,37.766-0.008,75.548,0.165,113.331c-40.979,0.298-81.974,0.039-122.96,0.125c-27.353-0.039-54.707,0.063-82.06-0.055
		c-43.941-0.157-87.874-0.024-131.814-0.071c-27.118,0.102-54.252-0.196-81.363,0.157c-0.008-13.273-0.016-26.546,0-39.812
		c0-28.693-0.008-57.378,0.008-86.064c1.262-1.238,2.531-2.476,3.792-3.722C2021.248,996.521,2108.918,908.968,2196.454,821.275z"/>
	<path fill="#30A0C8" stroke="#30A0C8" d="M1929.848,821.283c53.453,0,106.906,0,160.359,0c-8.251,8.533-16.768,16.799-25.12,25.238
		c-45.069,45.093-90.161,90.169-135.223,135.27C1929.872,928.282,1929.895,874.782,1929.848,821.283z"/>
	<path fill="#EBEBEB" stroke="#EBEBEB" d="M1529.571,833.882c2.061,1.598,3.8,3.557,5.665,5.391
		c12.513,12.513,25.026,25.026,37.539,37.547c4.56-4.654,9.183-9.246,13.806-13.845c3.385,3.714,7.052,7.154,10.578,10.75
		c21.845,21.814,43.627,43.706,65.519,65.488c-22.699,22.785-45.468,45.508-68.214,68.254c-8.682,8.642-22.636,11.236-33.857,6.339
		c-6.942-2.703-11.737-8.611-16.924-13.657c-13.853-13.861-27.714-27.706-41.559-41.575c-5.414-5.406-10.821-10.828-16.235-16.235
		c20.889-6.315,37.618-24.454,42.311-45.751c2.076-8.094,1.355-16.501,1.465-24.76
		C1529.618,859.182,1529.782,846.528,1529.571,833.882z"/>
	<path fill="#EBEBEB" stroke="#EBEBEB" d="M598.988,870.755c3.988-4.004,9.575-6.339,15.224-6.378c44.137,0,88.273,0,132.418,0
		c11.487,0.055,22.965,3.62,32.282,10.374c13.273,9.332,22.041,24.728,23.271,40.908c0.4,6.002,0.086,12.02,0.188,18.029
		c0,35.353,0,70.706,0,106.052c-17.426,0.008-34.852-0.024-52.27,0.023c-21.798-0.047-43.604,0-65.402,0.008
		c-4.435-0.149-8.885,0.227-13.304-0.212c-7.828-0.917-14.832-6.48-17.637-13.822c-2.797-7.35-1.567-16.196,3.565-22.229
		c3.158-4.02,7.882-6.386,12.717-7.749c-3.463-1.05-6.95-2.327-9.739-4.709c-8.564-6.738-10.507-20.059-4.552-29.108
		c3.158-5.211,8.666-8.454,14.448-9.951c-3.048-0.815-6.112-1.802-8.658-3.714c-9.669-6.535-12.176-21.085-5.453-30.566
		c2.789-4.466,7.483-7.083,12.161-9.128c-15.921-0.157-31.843-0.031-47.772-0.063c-4.701-0.063-9.614,0.423-14.049-1.465
		c-7.929-3.017-13.641-11.016-13.861-19.502C592.218,881.38,594.553,875.088,598.988,870.755z"/>
	<path fill="#066385" stroke="#066385" d="M1186.343,865.631c4.874-0.729,9.81-0.227,14.723-0.345
		c44.434,0.016,88.861-0.031,133.295,0.024c0.196,26.938-7.365,53.876-21.398,76.873c-11.604,19.126-27.604,35.58-46.432,47.678
		c-23.639,15.42-51.792,23.53-79.983,23.639c-0.642-8.298-0.118-16.627-0.282-24.932
		C1186.311,947.589,1186.147,906.602,1186.343,865.631z"/>
	<path fill="#EBEBEB" stroke="#EBEBEB" d="M2347.951,913.983c0.055-13.532-0.149-27.063,0.094-40.587
		c16.282,17.206,32.509,34.46,48.752,51.698c2.907,3.126,5.978,6.104,8.658,9.45c6.088,7.757,9.622,17.512,9.841,27.385
		c0.047,28.983,0.071,57.974-0.016,86.965c-0.353,14.495-7.091,28.662-18.006,38.189c-9.755,8.635-22.793,13.532-35.823,13.203
		c-4.529-0.023-9.042-0.016-13.547-0.008c-12.975,0-25.943-0.024-38.91,0.008c-3.471,0.149-6.958-0.501-10.006-2.155
		c-7.334-3.635-11.533-12.239-10.241-20.278c0.901-7.804,7.067-14.26,14.558-16.266c-8.595-0.689-18.155,1.896-25.817-3.165
		c-8.376-5.195-11.299-17.058-6.637-25.661c2.695-5.485,8.172-8.972,13.986-10.398c-5.688-0.784-10.766-4.411-13.594-9.355
		c-3.894-6.644-3.385-15.585,1.285-21.712c3.017-4.074,7.639-6.825,12.67-7.514c-4.168-1.183-8.25-3.15-11.055-6.527
		c-5.649-6.37-6.355-16.533-1.654-23.616c3.424-5.406,9.677-8.995,16.133-8.846c19.761,0.008,39.521-0.008,59.29,0.016
		c10.272-0.102,20.552,0.18,30.824-0.149c-5.775-6.229-11.957-12.059-17.904-18.115
		C2356.531,922.359,2352.488,917.908,2347.951,913.983z"/>
	<path fill="#DBDBDB" stroke="#DBDBDB" d="M2347.951,913.983c4.537,3.926,8.58,8.376,12.881,12.56
		c5.947,6.057,12.129,11.886,17.904,18.115c-10.272,0.329-20.552,0.047-30.824,0.149
		C2347.983,934.527,2347.912,924.255,2347.951,913.983z"/>
	<path fill="#0978A3" stroke="#0978A3" d="M1675.489,952.102c5.634-5.587,11.213-11.22,16.838-16.815
		c-1.927,8.541-2.648,17.308-4.599,25.857c-9.128,48.227-25.207,95.16-47.882,138.71c-6.433,12.638-13.696,24.838-20.944,37.03
		c-8.791,13.093-17.379,26.358-27.173,38.746c-42.186,0.29-84.387,0.008-126.58,0.141c-2.061,0.008-4.098-0.031-6.127-0.102
		c-0.274-41.99,0-83.987-0.141-125.977c-0.196-4.168,3.322-7.036,5.179-10.405c14.511-23.506,26.335-48.705,34.609-75.071
		c0.611-2.17,1.88-4.059,3.455-5.642c13.845,13.869,27.706,27.714,41.559,41.575c5.187,5.046,9.982,10.954,16.924,13.657
		c11.22,4.897,25.175,2.304,33.857-6.339c22.746-22.746,45.516-45.469,68.214-68.254
		C1666.925,943.53,1671.266,947.753,1675.489,952.102z"/>
	<path fill="#EBEBEB" stroke="#EBEBEB" d="M1961.817,982.895c13.493,0,26.993-0.031,40.501,0.016
		c-13.414,13.579-26.93,27.048-40.47,40.493C1961.926,1009.903,1961.989,996.395,1961.817,982.895z"/>
	<path fill="#0978A3" stroke="#0978A3" d="M684.699,1039.772c21.798-0.008,43.604-0.055,65.402-0.008
		c6.535,9.16,16.791,15.545,27.902,17.348c4.913,0.862,9.904,0.533,14.864,0.588c33.167,0.008,66.326-0.024,99.493,0.016
		c8.588-0.055,17.159-2.374,24.556-6.754c2.484,5.32,6.527,9.645,9.896,14.401c5.579,7.42,11.808,14.323,17.865,21.351
		c4.427,4.654,9.246,8.932,13.469,13.79c-40.446,0.47-80.908-0.086-121.346,0.298c-0.447,45.335,0.016,90.702-0.243,136.038
		c-3.408-2.445-6.096-5.696-9.183-8.494c-5.101-4.317-9.089-9.739-13.97-14.276c-11.683-12.686-22.997-25.739-33.402-39.506
		c-4.2-6.174-9.23-11.737-13.156-18.1c-4.161-5.391-7.42-11.385-11.4-16.893c-7.467-12.262-15.075-24.454-21.422-37.343
		c-4.599-7.929-8.055-16.431-12.2-24.587c-5.273-11.957-10.374-24-14.731-36.317c-6.887-0.439-13.806-0.282-20.701-0.11
		c-0.353,19.549-0.047,39.114-0.157,58.671c0.023,22.965-0.031,45.931,0.023,68.904c-0.023,1.583-0.164,3.181-0.337,4.795
		c-0.721-7.585-0.172-15.216-0.313-22.817c0.031-33.426-0.039-66.851,0.008-100.269c-0.047-3.463,0.384-7.021-0.831-10.335
		L684.699,1039.772z"/>
	<path fill="#2596C0" stroke="#2596C0" d="M1104.157,1064.908c5.203-0.776,10.593,0.211,15.522,1.959
		c7.193,2.562,12.56,8.83,20.16,10.444c6.503,1.363,13.681,0.799,19.455-2.711c5.477-3.252,10.593-7.436,16.964-8.838
		c8.799-1.935,18.429-1.622,26.617,2.437c5.046,2.445,9.199,6.527,14.582,8.337c7.686,2.523,16.635,1.88,23.428-2.727
		c5.14-3.487,10.484-7.036,16.682-8.282c3.471-0.697,7.083-1.191,10.625-0.674c3.589,0.862,5.218,5.743,2.852,8.595
		c-2.178,3.173-6.409,2.069-9.645,2.766c-6.433,0.776-11.306,5.359-16.721,8.431c-8.642,4.803-19.165,5.61-28.67,3.213
		c-5.641-1.442-10.476-4.803-15.248-7.992c-6.213-4.168-14.229-4.952-21.398-3.291c-5.782,1.34-10.186,5.516-15.295,8.25
		c-8.964,4.944-19.949,5.469-29.657,2.617c-6.456-1.747-11.354-6.566-17.269-9.395c-4.106-2.123-8.791-1.982-13.21-2.695
		C1099.237,1073.817,1099.55,1066.326,1104.157,1064.908z"/>
	<path fill="#0978A3" stroke="#0978A3" d="M1421.043,1093.718c1.019,1.191,0.744,2.758,0.666,4.223
		c0.392,24.117,0.07,48.274,0.18,72.407c0.008,13.986,0.047,27.98-0.212,41.966c2.656,0.713,5.43,0.423,8.172,0.454
		c24.564-0.031,49.135,0.047,73.707-0.039c18.805,0.212,37.633-0.29,56.438,0.212c-11.314,12.874-23.945,24.54-36.701,35.972
		c-20.168,17.771-41.747,33.943-64.469,48.297c-5.375,3.314-10.711,6.676-16.063,10.006c-9.857-9.943-24.156-14.683-37.986-14.464
		c-13.602-0.157-27.667,4.45-37.414,14.174c-5.743,5.657-9.567,13.508-9.457,21.665c0.102,5.994-0.008,11.996-0.016,17.998
		c-3.448,1.073-6.895,2.115-10.335,3.158c0.071-12.145,0.008-24.29,0.047-36.427c-11.259-8.29-22.958-15.984-34.374-24.062
		c-34.867-24.235-69.844-48.313-104.618-72.673c-63.263,43.8-126.377,87.795-189.608,131.642c-3.573-2.217-7.773-2.915-11.604-4.529
		c-10.977-4.372-22.025-8.58-32.752-13.547c-12.106-5.767-24.211-11.573-35.941-18.076c-8.635-5.234-17.496-10.084-26.029-15.467
		c-11.706-7.835-23.475-15.6-34.672-24.141c-1.873-1.496-4.826-2.828-4.38-5.704c0.063-42.805-0.07-85.609,0.07-128.414
		c8.266-0.517,16.572-0.063,24.862-0.196c33.441-0.039,66.883,0.039,100.324-0.039c2.742,0.063,5.837-0.494,8.172,1.348
		c9.779,6.707,20.098,12.599,30.715,17.88c48.007,24.689,102.299,36.771,156.221,35.682c14.378-0.744,28.826-1.395,43.024-4.067
		c8.995-1.222,17.912-2.993,26.703-5.265c39.804-9.379,77.649-26.75,111.012-50.358c14.926-10.162,28.45-22.229,41.629-34.53
		C1418.066,1097.244,1419.562,1095.481,1421.043,1093.718z"/>
	<path fill="#2596C0" stroke="#2596C0" d="M1104.165,1097.895c7.091-0.901,14.441,0.948,20.615,4.498
		c4.349,2.413,8.133,5.947,13.007,7.35c7.428,2.194,15.992,1.645,22.558-2.735c5.234-3.401,10.515-7.068,16.729-8.399
		c8.368-1.771,17.426-1.324,25.253,2.319c6.018,2.75,10.836,7.898,17.465,9.324c6.558,1.387,13.837,0.972,19.675-2.594
		c4.239-2.546,8.204-5.61,12.827-7.459c4.811-1.927,10.076-2.883,15.255-2.445c3.926,0.376,5.971,5.657,3.549,8.705
		c-1.708,2.734-5.305,2.225-8.063,2.562c-6.245,0.235-11.369,4.129-16.368,7.436c-9.12,6.033-20.873,6.966-31.263,4.247
		c-5.43-1.583-10.139-4.795-14.785-7.882c-6.19-4.121-14.151-4.905-21.273-3.236c-7.397,1.849-12.693,7.992-19.863,10.39
		c-8.611,2.891-18.303,3.001-26.867-0.141c-7.412-2.594-12.92-9.152-20.819-10.539c-3.338-0.862-7.686,0.47-10.123-2.593
		C1099.245,1103.842,1100.749,1099.164,1104.165,1097.895z"/>
	<path fill="#363636" stroke="#363636" d="M301.432,1173.945c127.63,0.016,255.268-0.023,382.899,0.024
		c-0.047,13.344,0.008,26.687-0.031,40.039c-79.263-0.212-158.533-0.031-237.796-0.094c-48.36,0.031-96.712-0.063-145.072,0.047
		C301.416,1200.624,301.416,1187.28,301.432,1173.945z"/>
	<path fill="#363636" stroke="#363636" d="M1760.087,1173.89c56.595,0.125,113.19,0.016,169.784,0.063
		c-0.016,13.265-0.008,26.538,0,39.812c-56.579,0.313-113.166,0.023-169.745,0.141
		C1760.087,1200.569,1760.173,1187.226,1760.087,1173.89z"/>
	<path fill="#30A0C8" stroke="#30A0C8" d="M1669.291,1185.784c1.089-3.495,6.699-3.408,7.585,0.18
		c0.494,3.91,0.063,7.875,0.149,11.816c0.141,0.76-0.353,1.967,0.431,2.507c4.599,0.407,9.246-0.204,13.853,0.235
		c2.837,0.619,3.996,4.646,1.826,6.644c-1.128,1.442-3.079,1.254-4.686,1.301c-3.745-0.039-7.483-0.055-11.212-0.031
		c-0.603,4.795,0.274,9.677-0.368,14.472c-1.05,3.722-7.013,3.463-7.694-0.313c-0.4-4.693,0.071-9.41-0.196-14.104
		c-4.834-0.29-9.7,0.298-14.495-0.274c-3.448-1.128-3.502-6.472-0.016-7.592c4.803-0.603,9.685,0.024,14.535-0.282
		C1669.283,1195.492,1668.641,1190.595,1669.291,1185.784z"/>
	<path fill="#066385" stroke="#066385" d="M1929.872,1213.764c27.11-0.353,54.244-0.055,81.363-0.157
		c43.941,0.047,87.874-0.086,131.814,0.071c0.039,27.667,0.024,55.341,0.008,83.016c-41.316,0.259-82.639,0.031-123.955,0.11
		c-48.877,0-97.754,0-146.631-0.008c-1.732,0.047-2.609,1.881-3.808,2.876c-32.744,32.815-65.558,65.566-98.318,98.365
		c-3.455,3.111-6.284,6.989-10.155,9.591c-0.149-64.571-0.024-129.151-0.063-193.722
		C1816.706,1213.787,1873.293,1214.077,1929.872,1213.764z"/>
	<path fill="#574F5E" stroke="#574F5E" d="M301.432,1213.96c48.36-0.11,96.712-0.016,145.072-0.047
		c79.263,0.063,158.533-0.118,237.796,0.094c0,64.689,0.016,129.37-0.008,194.058c-36.293-36.027-72.352-72.297-108.528-108.441
		c-1.23-0.979-2.1-2.844-3.839-2.821c-90.162-0.008-180.331-0.008-270.5,0C301.44,1269.191,301.424,1241.58,301.432,1213.96z"/>
	<path fill="#9ED76C" stroke="#9ED76C" d="M1019.003,1348.227c63.231-43.847,126.345-87.842,189.608-131.642
		c34.773,24.36,69.75,48.438,104.618,72.673c11.416,8.078,23.114,15.773,34.374,24.062c-24.431,16.65-48.595,33.7-72.916,50.515
		c-46.793,32.54-93.648,64.987-140.402,97.589c-46.409-32.094-92.771-64.258-139.07-96.5
		C1002.987,1359.141,1011.112,1353.845,1019.003,1348.227 M1238.166,1281.172c-5.767,0.165-12.717,4.098-12.341,10.625
		c0.744,6.331,7.976,9.191,13.634,8.635c5.469-0.392,11.996-4.051,11.839-10.233
		C1250.812,1283.914,1243.768,1280.819,1238.166,1281.172 M1169.967,1301.567c-11.009,0.901-21.931,4.686-30.581,11.659
		c-7.53,6.026-13.203,15.044-13.218,24.909c-0.219,10.648,6.386,20.348,15.036,26.076c12.615,8.423,28.732,10.531,43.424,7.546
		c11.212-2.288,22.08-7.828,29.351-16.83c5.344-6.59,8.219-15.436,6.511-23.875c-1.426-8.454-7.107-15.608-13.986-20.442
		C1195.957,1303.228,1182.668,1300.548,1169.967,1301.567 M1103.382,1372.054c-4.411,0.533-9.05,3.118-10.484,7.553
		c-1.238,3.361,0.627,7.177,3.503,9.073c5.532,3.698,13.626,3.275,18.632-1.16c2.766-2.421,3.98-6.801,1.974-10.061
		C1114.335,1372.798,1108.381,1371.372,1103.382,1372.054z"/>
	<path fill="#30A0C8" stroke="#30A0C8" d="M1602.15,1257.281c0.611-3.729,6.441-4.09,7.64-0.541
		c0.815,4.811-0.055,9.739,0.329,14.605c4.85,0.525,9.778-0.509,14.597,0.337c3.565,1.175,3.181,7.028-0.564,7.639
		c-4.662,0.407-9.348,0-14.002,0.149c-0.455,4.819,0.415,9.7-0.321,14.495c-1.113,3.769-7.201,3.369-7.71-0.556
		c-0.353-4.639,0.023-9.293-0.133-13.931c-4.631-0.149-9.261,0.219-13.869-0.133c-4.302-0.407-4.247-7.396,0-7.82
		c4.615-0.478,9.261,0.149,13.892-0.18C1602.142,1266.653,1601.75,1261.952,1602.15,1257.281z"/>
	<path fill="#30A0C8" stroke="#30A0C8" d="M1670.67,1266.903c0.83-3.777,6.699-3.839,7.686-0.118
		c0.47,4.787-0.039,9.614,0.251,14.425c4.646,0.149,9.324-0.243,13.97,0.11c3.722,0.572,4.278,6.276,0.768,7.616
		c-4.897,0.885-9.951-0.29-14.856,0.58c-0.047,4.654,0.266,9.332-0.094,13.978c-0.831,3.628-6.48,3.957-7.608,0.368
		c-0.689-4.811-0.024-9.724-0.329-14.558c-4.819-0.353-9.692,0.313-14.472-0.298c-3.557-1.026-3.456-6.597,0.055-7.616
		c4.78-0.619,9.653,0.235,14.456-0.345C1670.686,1276.329,1670.239,1271.597,1670.67,1266.903z"/>
	<path fill="#87B85C" stroke="#87B85C" d="M1238.166,1281.172c5.602-0.353,12.646,2.742,13.132,9.026
		c0.157,6.182-6.37,9.841-11.839,10.233c-5.657,0.556-12.889-2.304-13.634-8.635
		C1225.449,1285.27,1232.399,1281.336,1238.166,1281.172z"/>
	<path fill="#FECB4E" stroke="#FECB4E" d="M1367.363,1306.927c9.747-9.724,23.812-14.331,37.414-14.174
		c13.829-0.219,28.129,4.521,37.986,14.464c6.723,6.723,10.147,16.384,9.081,25.849c-1.802,6.597-5.101,12.897-10.131,17.606
		c-9.59,9.003-22.832,13.414-35.855,13.563c-14.206,0.212-29.093-4.419-39.051-14.903c-3.644-3.479-5.508-8.212-8.188-12.356
		c-0.219,7.875,4.247,14.958,9.982,20.004c10.139,9.034,24.008,13.093,37.437,12.756c14.574-0.212,29.774-5.618,39.255-17.081
		c3.181-3.651,4.717-8.298,6.55-12.678c0.172,64.65,0.024,129.299,0.078,193.949c0.125,4.717-0.031,9.559-1.802,14.01
		c-2.719,7.295-8.251,13.258-14.715,17.457c-0.697-1.238-1.536-2.374-2.437-3.424l0.282-0.165
		c7.122-4.106,13.923-10.069,16.54-18.092c-6.08,5.728-12.638,11.306-20.67,14.064c-1.63-1.34-3.275-2.656-4.631-4.239l-0.345-0.392
		c11.291-3.283,21.869-11.283,26.131-22.495c-3.737,3.393-7.138,7.232-11.526,9.833c-5.822,3.761-12.349,6.386-19.103,7.906
		c-1.904-1.395-3.55-3.079-4.944-4.952c11.542-2.272,23.177-7.208,30.668-16.635c2.1-2.593,3.737-5.524,4.936-8.627
		c-3.777,3.377-7.154,7.263-11.565,9.857c-9.113,5.798-19.855,9.066-30.644,9.301l-0.423,0.008c-1.52-1.935-3.095-3.816-4.662-5.681
		c12.795,0.11,25.966-3.166,36.16-11.158c4.866-3.894,9.042-8.893,11.103-14.84c-3.706,3.377-7.021,7.24-11.369,9.826
		c-6.856,4.435-14.644,7.287-22.676,8.666c-6.448,1.332-13.054,0.721-19.573,0.878c-0.313-0.133-0.932-0.4-1.246-0.533
		c-2.539-2.421-4.976-4.936-7.318-7.522c14.198,3.596,29.767,2.805,42.993-3.792c8.313-4.278,16-10.938,19.173-19.98
		c-13.148,15.255-34.476,21.516-54.088,18.875c-5.736-0.572-11.158-2.531-16.674-4.027c-3.839-2.499-6.825-5.978-9.888-9.316
		c2.453,3.667,3.283,8.055,4.349,12.262c-0.008,2.993-0.313,5.978-0.619,8.964l-0.235,0.744
		c-3.001,11.119-12.066,19.659-22.393,24.18c-15.146,6.825-33.198,6.613-48.289-0.243c-5.947-2.797-11.44-6.73-15.577-11.863
		c-2.946-3.542-4.568-7.906-6.84-11.847c-0.165-1.285-0.118-2.593-0.11-3.831c-0.666-7.898,1.975-15.859,7.044-21.916
		c8-9.638,20.239-14.958,32.493-16.454c5.226-0.533,10.515-0.47,15.757,0.039c8.047,1.23,15.922,3.886,22.738,8.415
		c-0.078-46.863-0.008-93.735-0.039-140.598c0.008-6.002,0.118-12.004,0.016-17.998
		C1357.796,1320.435,1361.62,1312.584,1367.363,1306.927 M1359.379,1356.062c4.842,13.242,18.076,21.391,31.271,24.509
		c15.835,3.714,33.457,1.238,46.902-8.196c5.164-3.933,10.131-8.862,12.176-15.177c-3.824,3.205-7.201,6.981-11.596,9.45
		c-19.439,11.917-45.406,12.113-65.151,0.799C1367.731,1364.563,1363.477,1360.332,1359.379,1356.062 M1416.428,1387.208
		c-15.616,2.586-32.431,0.008-45.766-8.776c-4.121-2.46-7.287-6.08-10.805-9.261c1.207,4.356,4.145,7.969,7.177,11.22
		c9.496,9.402,22.997,13.9,36.176,14.276c13.853,0.29,28.325-3.8,38.613-13.391c3.604-3.573,7.021-7.718,8.337-12.709
		C1441.783,1378.785,1429.325,1385.029,1416.428,1387.208 M1420.761,1398.741c-16.799,4.027-35.432,1.677-50.029-7.82
		c-4.145-2.445-7.334-6.057-10.86-9.246c2.562,7.71,8.87,13.618,15.686,17.724c15.263,8.995,34.679,9.974,51.126,3.706
		c10.139-3.988,19.933-11.353,23.545-21.986C1442.622,1389.989,1432.122,1396.109,1420.761,1398.741 M1420.714,1411.215
		c-16.776,3.996-35.345,1.646-49.935-7.796c-4.168-2.452-7.31-6.151-10.93-9.269c1.136,3.831,3.542,7.13,6.213,10.053
		c8.086,8.744,19.737,13.524,31.412,14.911c15.436,1.779,32.047-1.943,43.839-12.435c3.784-3.644,7.373-7.882,8.87-13.007
		C1442.481,1402.416,1432.052,1408.567,1420.714,1411.215 M1439.715,1415.376c-20.09,13.32-47.999,13.555-68.426,0.823
		c-4.333-2.523-7.694-6.268-11.416-9.536c2.954,8.642,10.476,14.903,18.296,19.126c14.315,7.256,31.624,8.071,46.746,2.868
		c10.774-3.886,21.375-11.283,25.293-22.487C1446.837,1409.382,1443.719,1412.916,1439.715,1415.376 M1442.88,1425.515
		c-10.155,8.094-23.185,12.012-36.051,12.451c-14.025,0.329-28.466-3.463-39.616-12.2c-2.664-1.943-4.67-4.623-7.342-6.527
		c2.554,7.295,8.486,12.913,14.856,17.026c14.817,9.12,33.818,10.444,50.146,4.858c10.813-3.847,21.265-11.361,25.363-22.456
		C1447.683,1420.845,1445.536,1423.462,1442.88,1425.515 M1359.488,1431.054c1.63,4.49,4.466,8.478,7.859,11.824
		c9.105,8.877,21.845,13.304,34.397,13.939c13.853,0.65,28.38-3.087,38.981-12.341c3.839-3.526,7.53-7.64,9.034-12.733
		c-2.468,1.92-4.451,4.372-6.934,6.276c-9.88,7.796-22.425,11.784-34.907,12.341c-14.73,0.627-30.01-3.409-41.543-12.819
		C1363.837,1435.622,1361.957,1433.021,1359.488,1431.054 M1359.481,1443.56c1.646,4.505,4.521,8.486,7.922,11.847
		c9.285,9.019,22.299,13.367,35.055,13.931c12.685,0.376,25.818-2.829,36.035-10.578c4.842-3.785,9.355-8.533,11.26-14.503
		c-3.205,2.492-5.759,5.735-9.23,7.906c-20.231,13.978-48.822,14.237-69.57,1.183
		C1366.603,1450.713,1363.21,1446.913,1359.481,1443.56 M1359.394,1455.595c1.356,4.372,4.098,8.172,7.224,11.471
		c7.193,7.483,17.105,11.871,27.212,13.735c14.95,2.703,31.208-0.008,43.737-8.87c5.179-3.926,10.147-8.846,12.168-15.185
		c-3.69,3.056-6.895,6.723-11.087,9.144c-14.691,9.277-33.269,11.62-50.021,7.436
		C1377.337,1470.599,1366.956,1464.441,1359.394,1455.595 M1359.418,1468.139c1.387,3.949,3.683,7.553,6.503,10.648
		c8.188,8.823,19.957,13.665,31.772,15.028c14.848,1.732,30.754-1.826,42.436-11.44c4.035-3.604,7.922-7.835,9.598-13.093
		c-3.15,2.311-5.587,5.461-8.917,7.553c-18.938,13.344-45.351,14.362-65.778,3.792
		C1369.024,1477.557,1363.963,1473.052,1359.418,1468.139 M1420.949,1498.266c-16.877,4.09-35.667,1.771-50.319-7.835
		c-4.051-2.476-7.248-6.002-10.688-9.191c2.21,7.42,8.313,12.999,14.613,17.136c14.895,9.254,34.029,10.633,50.468,4.921
		c10.813-3.824,21.312-11.424,25.183-22.605C1442.653,1489.491,1432.216,1495.618,1420.949,1498.266z"/>
	<path fill="#87B85C" stroke="#87B85C" d="M1169.967,1301.567c12.701-1.019,25.99,1.661,36.536,9.042
		c6.88,4.834,12.56,11.988,13.986,20.442c1.708,8.439-1.167,17.285-6.511,23.875c-7.271,9.003-18.139,14.542-29.351,16.83
		c-14.691,2.985-30.809,0.878-43.424-7.546c-8.65-5.728-15.255-15.428-15.036-26.076c0.016-9.865,5.688-18.883,13.218-24.909
		C1148.035,1306.253,1158.958,1302.468,1169.967,1301.567z"/>
	<path fill="#FFDA82" stroke="#FFDA82" d="M749.364,1317.183c2.742-5.038,5.5-10.068,8.243-15.115
		c3.048,5.336,5.735,10.883,8.94,16.125c5.25,3.197,10.742,6.041,16.196,8.901c-5.305,3.142-10.883,5.806-16.141,9.019
		c-3.228,5.25-5.939,10.821-9.003,16.18c-2.797-5.109-5.555-10.241-8.384-15.326c-0.697-1.442-2.351-1.88-3.604-2.641
		c-4.364-2.437-8.823-4.693-13.109-7.232c4.686-2.335,9.199-4.991,13.829-7.428C747.468,1319.016,748.816,1318.476,749.364,1317.183
		z"/>
	<path fill="#78A353" stroke="#78A353" d="M1274.686,1363.835c24.321-16.815,48.485-33.865,72.916-50.515
		c-0.039,12.137,0.024,24.282-0.047,36.427c-0.063,6.026,0.251,12.059-0.016,18.076c-0.674,0.885-1.63,1.489-2.499,2.155
		c-10.484,7.115-20.795,14.472-31.255,21.618c-57.982,40.36-116.042,80.618-174.047,120.954c-1.857,1.308-3.659,2.711-5.743,3.643
		c0.705-18.241,0.094-36.521,0.29-54.769C1181.038,1428.821,1227.893,1396.375,1274.686,1363.835z"/>
	<path fill="#30A0C8" stroke="#30A0C8" d="M1546.856,1326.468c0.823-3.73,6.589-3.745,7.624-0.133
		c0.517,4.78-0.078,9.614,0.266,14.425c4.811,0.219,9.7-0.447,14.488,0.298c3.557,1.097,3.408,6.636-0.157,7.616
		c-4.811,0.462-9.661-0.251-14.456,0.313c-0.063,4.686,0.243,9.395-0.078,14.088c-0.752,3.651-6.37,3.973-7.616,0.509
		c-0.556-4.889,0-9.833-0.266-14.738c-4.874-0.259-9.779,0.259-14.629-0.219c-3.604-1.136-3.299-6.887,0.368-7.655
		c4.725-0.619,9.528,0.118,14.292-0.329C1546.879,1335.91,1546.448,1331.169,1546.856,1326.468z"/>
	<path fill="#DFB346" stroke="#DFB346" d="M1441.713,1350.671c5.03-4.709,8.329-11.009,10.131-17.606
		c0.031,2.288,0.212,4.599,0,6.911c-1.833,4.38-3.369,9.026-6.55,12.678c-9.481,11.463-24.682,16.87-39.255,17.081
		c-13.43,0.337-27.298-3.722-37.437-12.756c-5.735-5.046-10.202-12.129-9.982-20.004c2.68,4.145,4.545,8.877,8.188,12.356
		c9.959,10.484,24.846,15.114,39.051,14.903C1418.88,1364.085,1432.122,1359.674,1441.713,1350.671z"/>
	<path fill="#0982AF" stroke="#0982AF" d="M1347.555,1349.747c3.44-1.042,6.887-2.084,10.335-3.158
		c0.031,46.863-0.039,93.734,0.039,140.598c-6.817-4.529-14.691-7.185-22.738-8.415c4.082-2.852,8.157-5.712,12.302-8.478
		c0.227-18.327,0.094-36.67,0.118-54.996c-11.126-8.11-22.636-15.686-33.825-23.702c10.46-7.146,20.771-14.503,31.255-21.618
		c0.87-0.666,1.826-1.269,2.499-2.155C1347.806,1361.805,1347.493,1355.772,1347.555,1349.747z"/>
	<path fill="#DFB346" stroke="#DFB346" d="M1359.379,1356.062c4.098,4.27,8.352,8.501,13.602,11.385
		c19.745,11.314,45.712,11.118,65.151-0.799c4.396-2.468,7.773-6.245,11.596-9.45c-2.045,6.315-7.013,11.244-12.176,15.177
		c-13.445,9.434-31.067,11.91-46.902,8.196C1377.455,1377.453,1364.221,1369.304,1359.379,1356.062z"/>
	<path fill="#87B85C" stroke="#87B85C" d="M995.065,1364.814l0.149,0.11c46.299,32.243,92.661,64.407,139.07,96.5
		c-0.196,18.249,0.415,36.529-0.29,54.769c-12.615-8.462-24.815-17.535-37.602-25.716c-11.542-8.682-23.639-16.588-35.432-24.901
		c-10.68-7.436-21.406-14.809-32.054-22.284c-11.205-7.765-22.464-15.467-33.59-23.334
		C994.815,1401.617,995.324,1383.188,995.065,1364.814z"/>
	<path fill="#FFDA82" stroke="#FFDA82" d="M832.45,1364.908c2.593,4.576,4.952,9.301,7.639,13.829
		c4.403,2.774,9.144,5.007,13.673,7.592c-0.008,0.102-0.016,0.306-0.023,0.407c-4.497,2.476-9.081,4.811-13.492,7.436
		c-2.758,4.435-5.093,9.16-7.624,13.743c-3.189-4.262-4.968-9.457-8.039-13.782c-4.529-2.664-9.167-5.164-13.837-7.569
		c4.403-2.444,8.854-4.803,13.25-7.263c0.878-0.384,1.254-1.308,1.724-2.053C827.937,1373.12,830.202,1369.014,832.45,1364.908z"/>
	<path fill="#DFB346" stroke="#DFB346" d="M1416.428,1387.208c12.897-2.178,25.355-8.423,33.731-18.64
		c-1.316,4.991-4.733,9.136-8.337,12.709c-10.288,9.59-24.76,13.681-38.613,13.391c-13.179-0.376-26.68-4.874-36.176-14.276
		c-3.032-3.252-5.97-6.864-7.177-11.22c3.518,3.181,6.684,6.801,10.805,9.261
		C1383.997,1387.215,1400.812,1389.793,1416.428,1387.208z"/>
	<path fill="#87B85C" stroke="#87B85C" d="M1103.382,1372.054c4.999-0.682,10.954,0.744,13.626,5.406
		c2.006,3.26,0.791,7.64-1.974,10.061c-5.007,4.435-13.101,4.858-18.632,1.16c-2.876-1.896-4.74-5.712-3.503-9.073
		C1094.332,1375.172,1098.97,1372.587,1103.382,1372.054z"/>
	<path fill="#DFB346" stroke="#DFB346" d="M1420.761,1398.741c11.361-2.633,21.861-8.752,29.469-17.622
		c-3.612,10.633-13.406,17.998-23.545,21.986c-16.447,6.268-35.863,5.289-51.126-3.706c-6.817-4.106-13.124-10.014-15.686-17.724
		c3.526,3.189,6.715,6.801,10.86,9.246C1385.329,1400.418,1403.962,1402.769,1420.761,1398.741z"/>
	<path fill="#9ED76C" stroke="#9ED76C" d="M1139.738,1512.55c58.005-40.337,116.065-80.594,174.047-120.954
		c11.189,8.016,22.699,15.592,33.825,23.702c-71.278,49.269-142.353,98.851-213.545,148.253
		c-10.586-7.835-21.61-15.052-32.368-22.644c-35.455-24.72-71.09-49.183-106.475-73.981c11.087-8.07,22.55-15.624,33.684-23.631
		c10.648,7.475,21.375,14.848,32.054,22.284c11.792,8.313,23.89,16.219,35.432,24.901c12.787,8.18,24.987,17.254,37.602,25.716
		C1136.079,1515.261,1137.881,1513.858,1139.738,1512.55z"/>
	<path fill="#DFB346" stroke="#DFB346" d="M1420.714,1411.215c11.338-2.648,21.767-8.799,29.469-17.543
		c-1.496,5.124-5.085,9.363-8.87,13.007c-11.792,10.491-28.403,14.213-43.839,12.435c-11.675-1.387-23.326-6.166-31.412-14.911
		c-2.672-2.923-5.077-6.221-6.213-10.053c3.62,3.118,6.762,6.817,10.93,9.269
		C1385.369,1412.861,1403.938,1415.211,1420.714,1411.215z"/>
	<path fill="#DFB346" stroke="#DFB346" d="M1439.715,1415.376c4.004-2.46,7.122-5.994,10.492-9.207
		c-3.918,11.205-14.519,18.601-25.293,22.487c-15.122,5.203-32.43,4.388-46.746-2.868c-7.82-4.223-15.342-10.484-18.296-19.126
		c3.722,3.267,7.083,7.013,11.416,9.536C1391.715,1428.931,1419.625,1428.696,1439.715,1415.376z"/>
	<path fill="#78A353" stroke="#78A353" d="M1134.065,1563.55c71.192-49.402,142.267-98.984,213.545-148.253
		c-0.024,18.327,0.11,36.669-0.118,54.996c-4.145,2.766-8.219,5.626-12.302,8.478c-5.242-0.509-10.531-0.572-15.757-0.039
		c-12.255,1.496-24.493,6.817-32.493,16.454c-5.069,6.057-7.71,14.017-7.044,21.916c-48.344,33.762-96.814,67.361-145.276,100.951
		C1133.712,1599.906,1134.817,1581.705,1134.065,1563.55z"/>
	<path fill="#DFB346" stroke="#DFB346" d="M1442.88,1425.515c2.656-2.053,4.803-4.67,7.357-6.848
		c-4.098,11.095-14.55,18.609-25.363,22.456c-16.329,5.587-35.33,4.262-50.146-4.858c-6.37-4.114-12.302-9.732-14.856-17.026
		c2.672,1.904,4.678,4.584,7.342,6.527c11.15,8.737,25.59,12.529,39.616,12.2C1419.695,1437.526,1432.726,1433.609,1442.88,1425.515
		z"/>
	<path fill="#FFDA82" stroke="#FFDA82" d="M898.651,1431.258c2.115-2.711,2.977-6.237,5.304-8.783
		c1.614,2.907,3.001,5.963,4.866,8.729c2.797,1.81,5.806,3.283,8.752,4.858c-2.711,2.178-6.19,3.165-8.885,5.336
		c-1.81,2.789-3.205,5.83-4.842,8.729c-1.912-2.813-3.197-5.994-5.054-8.823c-2.852-1.959-6.088-3.275-8.956-5.203
		C892.798,1434.533,895.823,1433.06,898.651,1431.258z"/>
	<path fill="#FFDA82" stroke="#FFDA82" d="M1525.136,1431.015c1.826-2.883,3.314-5.978,4.975-8.956
		c1.716,2.97,3.095,6.159,5.046,9.003c2.789,1.927,5.947,3.275,8.901,4.968c-2.821,1.88-6.002,3.126-8.823,5.007
		c-1.967,2.875-3.385,6.096-5.116,9.12c-1.724-3.025-3.181-6.206-5.093-9.089c-2.852-1.896-6.049-3.181-8.901-5.054
		C1519.118,1434.345,1522.315,1432.982,1525.136,1431.015z"/>
	<path fill="#DFB346" stroke="#DFB346" d="M1359.488,1431.054c2.468,1.967,4.349,4.568,6.887,6.488
		c11.534,9.41,26.813,13.445,41.543,12.819c12.482-0.557,25.026-4.545,34.907-12.341c2.484-1.904,4.466-4.357,6.934-6.276
		c-1.504,5.093-5.195,9.207-9.034,12.733c-10.601,9.253-25.128,12.991-38.981,12.341c-12.552-0.635-25.293-5.062-34.397-13.939
		C1363.955,1439.532,1361.118,1435.544,1359.488,1431.054z"/>
	<path fill="#DFB346" stroke="#DFB346" d="M1359.481,1443.56c3.73,3.354,7.122,7.154,11.471,9.786
		c20.748,13.054,49.339,12.795,69.57-1.183c3.471-2.17,6.025-5.414,9.23-7.906c-1.904,5.97-6.417,10.719-11.26,14.503
		c-10.217,7.749-23.349,10.954-36.035,10.578c-12.756-0.564-25.771-4.913-35.055-13.931
		C1364.002,1452.045,1361.126,1448.065,1359.481,1443.56z"/>
	<path fill="#DFB346" stroke="#DFB346" d="M1359.394,1455.595c7.561,8.846,17.943,15.005,29.234,17.731
		c16.752,4.184,35.33,1.841,50.021-7.436c4.192-2.421,7.397-6.088,11.087-9.144c-2.021,6.339-6.989,11.259-12.168,15.185
		c-12.529,8.862-28.787,11.573-43.737,8.87c-10.108-1.865-20.019-6.253-27.212-13.735
		C1363.492,1463.767,1360.75,1459.967,1359.394,1455.595z"/>
	<path fill="#87B85C" stroke="#87B85C" d="M995.026,1466.776l0.196,0.149c35.384,24.799,71.02,49.261,106.475,73.981
		c10.758,7.593,21.782,14.809,32.368,22.644c0.752,18.155-0.353,36.356,0.556,54.503l0.039,0.588
		c-25.583-17.551-50.985-35.369-76.512-53.006c-20.928-14.621-42.037-28.999-62.879-43.737
		C994.854,1503.555,995.332,1485.142,995.026,1466.776z"/>
	<path fill="#DFB346" stroke="#DFB346" d="M1359.418,1468.139c4.545,4.913,9.606,9.418,15.616,12.49
		c20.427,10.57,46.84,9.551,65.778-3.792c3.33-2.092,5.767-5.242,8.917-7.553c-1.677,5.258-5.563,9.489-9.598,13.093
		c-11.682,9.614-27.588,13.171-42.436,11.44c-11.816-1.363-23.584-6.206-31.772-15.028
		C1363.101,1475.692,1360.805,1472.088,1359.418,1468.139z"/>
	<path fill="#DFB346" stroke="#DFB346" d="M1420.949,1498.266c11.267-2.648,21.704-8.776,29.257-17.575
		c-3.871,11.181-14.37,18.781-25.183,22.605c-16.439,5.712-35.573,4.333-50.468-4.921c-6.3-4.137-12.403-9.716-14.613-17.136
		c3.44,3.189,6.637,6.715,10.688,9.191C1385.282,1500.037,1404.072,1502.356,1420.949,1498.266z"/>
	<path fill="#DFB346" stroke="#DFB346" d="M1396.174,1512.08c19.612,2.641,40.94-3.62,54.088-18.875
		c-3.173,9.042-10.86,15.702-19.173,19.98c-13.226,6.597-28.795,7.389-42.993,3.792c2.343,2.586,4.78,5.101,7.318,7.522
		c-7.357-1.081-14.433-3.44-21.062-6.777c-0.36,0.721-0.697,1.473-1.011,2.241c0.306-2.985,0.611-5.97,0.619-8.964
		c4.45,1.669,8.525,4.231,13.148,5.485c-2.343-2.993-5.156-5.555-7.608-8.431C1385.016,1509.549,1390.438,1511.508,1396.174,1512.08
		z"/>
	<path fill="#C9A03F" stroke="#C9A03F" d="M1369.612,1498.736c3.064,3.338,6.049,6.817,9.888,9.316
		c2.452,2.875,5.265,5.438,7.608,8.431c-4.623-1.254-8.697-3.816-13.148-5.485
		C1372.895,1506.791,1372.064,1502.403,1369.612,1498.736z"/>
	<path fill="#DFB446" stroke="#DFB446" d="M1438.908,1515.488c4.349-2.586,7.663-6.448,11.369-9.826
		c-2.061,5.947-6.237,10.946-11.103,14.84c-10.194,7.992-23.365,11.267-36.16,11.158c1.567,1.865,3.142,3.745,4.662,5.681
		c-11.612,0.964-23.302-2.014-33.598-7.326c-0.031,1.779,0,3.581,0.047,5.391c11.714,7.498,26.382,9.99,40.039,7.812
		c-1.888-2.1-3.831-4.168-6.065-5.884c10.789-0.235,21.532-3.503,30.644-9.301c4.411-2.594,7.788-6.48,11.565-9.857
		c-1.199,3.103-2.836,6.033-4.936,8.627c-7.491,9.426-19.126,14.362-30.668,16.635c1.395,1.873,3.04,3.557,4.944,4.952
		c6.754-1.52,13.281-4.145,19.103-7.906c4.388-2.601,7.788-6.441,11.526-9.833c-4.262,11.212-14.84,19.212-26.131,22.495
		c-1.348-1.685-2.962-3.103-4.568-4.49c-8.791,1.316-17.794,2.014-26.578,0.321c-6.582-1.144-12.889-3.455-18.828-6.448
		c-0.133,1.826-0.235,3.667-0.306,5.524c-0.071-7.632-0.157-15.263,0.055-22.887c-1.88,5.046-3.792,10.233-7.577,14.229
		c-10.131,11.346-25.857,16.274-40.752,16c-14.441-0.305-29.524-5.602-38.958-16.956c-3.495-3.847-5.116-8.83-6.684-13.657
		c-0.227-1.285-0.031-2.609,0.055-3.847c2.272,3.941,3.894,8.306,6.84,11.847c4.137,5.132,9.63,9.066,15.577,11.863
		c15.091,6.856,33.144,7.068,48.289,0.243c10.327-4.521,19.392-13.062,22.393-24.18c0.846,1.497,1.865,2.993,3.495,3.777
		c7.843,4.419,16.838,6.613,25.802,6.997c-2.029-2.061-3.941-4.215-5.743-6.448c6.519-0.157,13.124,0.454,19.573-0.878
		C1424.263,1522.775,1432.052,1519.923,1438.908,1515.488z"/>
	<path fill="#C9A03E" stroke="#C9A03E" d="M1374.352,1517.721c6.629,3.338,13.704,5.696,21.062,6.777
		c0.313,0.133,0.932,0.4,1.246,0.533c1.802,2.233,3.714,4.388,5.743,6.448c-8.964-0.384-17.959-2.578-25.802-6.997
		c-1.63-0.784-2.648-2.28-3.495-3.777l0.235-0.744C1373.655,1519.194,1373.992,1518.442,1374.352,1517.721z"/>
	<path fill="#FECB4E" stroke="#FECB4E" d="M1279.952,1524.781c1.567,4.827,3.189,9.81,6.684,13.657
		c9.434,11.353,24.517,16.65,38.958,16.956c14.895,0.274,30.621-4.654,40.752-16c3.785-3.996,5.696-9.183,7.577-14.229
		c-0.212,7.624-0.125,15.255-0.055,22.887c0.023,5.657-0.298,11.314,0.016,16.979c0.055,13.383,0.008,26.773,0.024,40.156
		c-0.016,6.01,0.415,12.27-2.053,17.92c-4.74,11.526-15.843,19.267-27.471,22.777c-16.368,4.968-35.157,2.868-49.371-6.918
		c-8.243-5.728-14.77-14.825-15.115-25.12C1279.928,1584.157,1279.803,1554.461,1279.952,1524.781 M1281.699,1542.34
		c1.167,3.714,3.51,6.919,6.049,9.841c7.522,8.321,18.311,13.101,29.257,14.895c14.879,2.39,30.95-0.572,43.204-9.59
		c4.983-4.051,9.849-8.885,11.792-15.177c-4.733,4.654-9.677,9.183-15.686,12.145c-19.87,10.084-45.163,9.214-63.929-2.977
		C1288.351,1548.992,1285.217,1545.427,1281.699,1542.34 M1281.715,1554.845c1.395,4.027,3.91,7.585,6.825,10.672
		c7.326,7.584,17.387,12.043,27.667,13.853c14.159,2.484,29.383,0.031,41.582-7.749c6.104-4.137,11.792-9.661,14.206-16.799
		c-3.683,3.244-6.997,6.95-11.244,9.497c-20.004,12.599-47.208,12.662-67.322,0.29
		C1288.986,1562.015,1285.538,1558.183,1281.715,1554.845 M1362.145,1575.844c-19.917,13.383-47.678,13.908-68.183,1.512
		c-4.443-2.5-7.898-6.253-11.761-9.473c2.147,6.926,7.843,12.137,13.673,16.133c15.044,9.653,34.64,11.134,51.376,5.257
		c10.554-3.8,20.685-11.181,24.783-21.962C1368.687,1570.093,1365.851,1573.486,1362.145,1575.844 M1281.738,1579.307
		c0.94,3.965,3.479,7.287,6.096,10.319c7.859,8.705,19.345,13.375,30.77,15.012c16.109,2.053,33.723-1.833,45.68-13.304
		c3.252-3.401,6.55-7.24,7.679-11.91c-13.085,15.365-34.64,21.367-54.213,18.648
		C1304.061,1596.302,1290.678,1590.018,1281.738,1579.307 M1281.691,1591.797c1.269,4.482,4.2,8.29,7.373,11.62
		c8.666,8.509,20.701,13.062,32.697,13.994c14.95,1.214,30.871-2.829,42.052-13.171c3.448-3.502,6.958-7.467,8.109-12.372
		c-13.602,15.992-36.34,21.845-56.548,18.288C1302.51,1608.024,1290.239,1601.74,1281.691,1591.797 M1281.715,1604.302
		c1.144,4.325,4.059,7.914,7.005,11.189c8.431,8.627,20.364,13.116,32.203,14.315c14.472,1.277,29.845-2.162,41.167-11.604
		c4.294-3.714,8.29-8.251,9.857-13.814c-3.479,3.636-7.122,7.162-11.4,9.865c-14.441,9.066-32.587,11.44-49.089,7.561
		C1300.057,1619.197,1289.393,1613.187,1281.715,1604.302 M1281.715,1616.792c2.648,8.235,9.543,14.393,16.83,18.64
		c14.652,8.055,32.76,9.214,48.477,3.683c10.64-3.847,21.242-11.134,24.963-22.292c-7.616,8.642-17.967,14.723-29.179,17.292
		c-16.971,4.216-35.816,1.606-50.522-8.023C1288.234,1623.609,1285.115,1620.02,1281.715,1616.792z"/>
	<path fill="#C9A03E" stroke="#C9A03E" d="M1374.078,1530.015c10.296,5.313,21.986,8.29,33.598,7.326l0.423-0.008
		c2.233,1.716,4.176,3.784,6.065,5.884c-13.657,2.178-28.325-0.314-40.039-7.812
		C1374.078,1533.596,1374.047,1531.794,1374.078,1530.015z"/>
	<path fill="#DFB346" stroke="#DFB346" d="M1281.699,1542.34c3.518,3.087,6.652,6.652,10.687,9.136
		c18.766,12.192,44.058,13.062,63.929,2.977c6.01-2.962,10.954-7.491,15.686-12.145c-1.943,6.292-6.809,11.126-11.792,15.177
		c-12.255,9.018-28.325,11.98-43.204,9.59c-10.946-1.794-21.735-6.574-29.257-14.895
		C1285.209,1549.259,1282.866,1546.054,1281.699,1542.34z"/>
	<path fill="#C9A03F" stroke="#C9A03F" d="M1374.172,1542.528c5.939,2.993,12.247,5.305,18.828,6.448
		c8.784,1.692,17.786,0.995,26.578-0.321c1.606,1.387,3.22,2.805,4.568,4.49l0.345,0.392c-13.109,3.855-27.447,4.161-40.352-0.658
		c-3.573-1.293-6.903-3.126-10.272-4.827C1373.937,1546.195,1374.039,1544.354,1374.172,1542.528z"/>
	<path fill="#E5B546" stroke="#E5B546" d="M1429.121,1557.776c8.031-2.758,14.589-8.337,20.67-14.064
		c-2.617,8.023-9.418,13.986-16.54,18.092c-1.402-1.262-2.805-2.484-4.215-3.675c-13.344,4.701-28.058,5.783-41.755,1.951
		c-4.639-1.16-8.924-3.275-13.242-5.242c-0.063,1.841-0.023,3.714,0.078,5.595c17.528,10.75,40.799,11.377,58.851,1.536
		c0.901,1.05,1.739,2.186,2.437,3.424c-18.28,11.557-43.408,11.502-61.523-0.36c-0.313-5.665,0.008-11.322-0.016-16.979
		c3.369,1.7,6.699,3.534,10.272,4.827c12.905,4.819,27.244,4.513,40.352,0.658
		C1425.846,1555.12,1427.492,1556.436,1429.121,1557.776z"/>
	<path fill="#DFB346" stroke="#DFB346" d="M1281.715,1554.845c3.824,3.338,7.271,7.169,11.714,9.763
		c20.113,12.372,47.318,12.309,67.322-0.29c4.247-2.547,7.561-6.253,11.244-9.497c-2.413,7.138-8.102,12.662-14.206,16.799
		c-12.2,7.78-27.424,10.233-41.582,7.749c-10.28-1.81-20.341-6.268-27.667-13.853
		C1285.625,1562.43,1283.109,1558.873,1281.715,1554.845z"/>
	<path fill="#C9A03E" stroke="#C9A03E" d="M1374.039,1554.837c4.317,1.967,8.603,4.082,13.242,5.242
		c13.696,3.832,28.411,2.75,41.755-1.951c1.41,1.191,2.813,2.413,4.215,3.675l-0.282,0.165c-18.053,9.841-41.324,9.214-58.851-1.536
		C1374.015,1558.551,1373.976,1556.679,1374.039,1554.837z"/>
	<path fill="#DFB347" stroke="#DFB347" d="M1362.145,1575.844c3.706-2.358,6.542-5.751,9.888-8.533
		c-4.098,10.781-14.229,18.162-24.783,21.962c-16.736,5.877-36.333,4.396-51.376-5.257c-5.829-3.996-11.526-9.207-13.673-16.133
		c3.863,3.22,7.318,6.973,11.761,9.473C1314.466,1589.752,1342.227,1589.227,1362.145,1575.844z"/>
	<path fill="#DFB346" stroke="#DFB346" d="M1281.738,1579.307c8.94,10.711,22.323,16.995,36.011,18.766
		c19.573,2.719,41.128-3.283,54.213-18.648c-1.128,4.67-4.427,8.509-7.679,11.91c-11.957,11.471-29.571,15.357-45.68,13.304
		c-11.424-1.638-22.911-6.307-30.77-15.012C1285.217,1586.594,1282.678,1583.272,1281.738,1579.307z"/>
	<path fill="#DFB347" stroke="#DFB347" d="M1281.691,1591.797c8.548,9.943,20.818,16.227,33.684,18.358
		c20.207,3.557,42.946-2.296,56.548-18.288c-1.152,4.905-4.662,8.87-8.109,12.372c-11.181,10.343-27.103,14.386-42.052,13.171
		c-11.996-0.932-24.031-5.485-32.697-13.994C1285.891,1600.087,1282.96,1596.279,1281.691,1591.797z"/>
	<path fill="#DFB346" stroke="#DFB346" d="M1281.715,1604.302c7.679,8.885,18.343,14.895,29.743,17.512
		c16.501,3.878,34.648,1.505,49.089-7.561c4.278-2.703,7.922-6.229,11.4-9.865c-1.567,5.563-5.563,10.1-9.857,13.814
		c-11.322,9.442-26.695,12.881-41.167,11.604c-11.839-1.199-23.772-5.688-32.203-14.315
		C1285.773,1612.216,1282.859,1608.627,1281.715,1604.302z"/>
	<path fill="#DFB346" stroke="#DFB346" d="M1281.715,1616.792c3.401,3.228,6.519,6.817,10.57,9.301
		c14.707,9.63,33.551,12.239,50.522,8.023c11.212-2.57,21.563-8.65,29.179-17.292c-3.722,11.158-14.323,18.444-24.963,22.292
		c-15.718,5.532-33.825,4.372-48.477-3.683C1291.258,1631.185,1284.363,1625.027,1281.715,1616.792z"/>
</g>
</svg>
